<?xml version="1.0" encoding="utf-8"?>
<svg xmlns="http://www.w3.org/2000/svg" xmlns:xlink="http://www.w3.org/1999/xlink" width="600" height="400" viewBox="0 0 2400 1600">
<defs>
  <clipPath id="clip320">
    <rect x="0" y="0" width="2400" height="1600"/>
  </clipPath>
</defs>
<path clip-path="url(#clip320)" d="M0 1600 L2400 1600 L2400 0 L0 0  Z" fill="#ffffff" fill-rule="evenodd" fill-opacity="1"/>
<defs>
  <clipPath id="clip321">
    <rect x="480" y="0" width="1681" height="1600"/>
  </clipPath>
</defs>
<path clip-path="url(#clip320)" d="M140.696 1423.18 L2352.76 1423.18 L2352.76 47.2441 L140.696 47.2441  Z" fill="#ffffff" fill-rule="evenodd" fill-opacity="1"/>
<defs>
  <clipPath id="clip322">
    <rect x="140" y="47" width="2213" height="1377"/>
  </clipPath>
</defs>
<polyline clip-path="url(#clip322)" style="stroke:#000000; stroke-linecap:round; stroke-linejoin:round; stroke-width:2; stroke-opacity:0.1; fill:none" points="203.301,1423.18 203.301,47.2441 "/>
<polyline clip-path="url(#clip322)" style="stroke:#000000; stroke-linecap:round; stroke-linejoin:round; stroke-width:2; stroke-opacity:0.1; fill:none" points="638.061,1423.18 638.061,47.2441 "/>
<polyline clip-path="url(#clip322)" style="stroke:#000000; stroke-linecap:round; stroke-linejoin:round; stroke-width:2; stroke-opacity:0.1; fill:none" points="1072.82,1423.18 1072.82,47.2441 "/>
<polyline clip-path="url(#clip322)" style="stroke:#000000; stroke-linecap:round; stroke-linejoin:round; stroke-width:2; stroke-opacity:0.1; fill:none" points="1507.58,1423.18 1507.58,47.2441 "/>
<polyline clip-path="url(#clip322)" style="stroke:#000000; stroke-linecap:round; stroke-linejoin:round; stroke-width:2; stroke-opacity:0.1; fill:none" points="1942.34,1423.18 1942.34,47.2441 "/>
<polyline clip-path="url(#clip320)" style="stroke:#000000; stroke-linecap:round; stroke-linejoin:round; stroke-width:4; stroke-opacity:1; fill:none" points="140.696,1423.18 2352.76,1423.18 "/>
<polyline clip-path="url(#clip320)" style="stroke:#000000; stroke-linecap:round; stroke-linejoin:round; stroke-width:4; stroke-opacity:1; fill:none" points="203.301,1423.18 203.301,1404.28 "/>
<polyline clip-path="url(#clip320)" style="stroke:#000000; stroke-linecap:round; stroke-linejoin:round; stroke-width:4; stroke-opacity:1; fill:none" points="638.061,1423.18 638.061,1404.28 "/>
<polyline clip-path="url(#clip320)" style="stroke:#000000; stroke-linecap:round; stroke-linejoin:round; stroke-width:4; stroke-opacity:1; fill:none" points="1072.82,1423.18 1072.82,1404.28 "/>
<polyline clip-path="url(#clip320)" style="stroke:#000000; stroke-linecap:round; stroke-linejoin:round; stroke-width:4; stroke-opacity:1; fill:none" points="1507.58,1423.18 1507.58,1404.28 "/>
<polyline clip-path="url(#clip320)" style="stroke:#000000; stroke-linecap:round; stroke-linejoin:round; stroke-width:4; stroke-opacity:1; fill:none" points="1942.34,1423.18 1942.34,1404.28 "/>
<path clip-path="url(#clip320)" d="M203.301 1454.1 Q199.69 1454.1 197.861 1457.66 Q196.056 1461.2 196.056 1468.33 Q196.056 1475.44 197.861 1479.01 Q199.69 1482.55 203.301 1482.55 Q206.935 1482.55 208.741 1479.01 Q210.57 1475.44 210.57 1468.33 Q210.57 1461.2 208.741 1457.66 Q206.935 1454.1 203.301 1454.1 M203.301 1450.39 Q209.111 1450.39 212.167 1455 Q215.245 1459.58 215.245 1468.33 Q215.245 1477.06 212.167 1481.67 Q209.111 1486.25 203.301 1486.25 Q197.491 1486.25 194.412 1481.67 Q191.357 1477.06 191.357 1468.33 Q191.357 1459.58 194.412 1455 Q197.491 1450.39 203.301 1450.39 Z" fill="#000000" fill-rule="nonzero" fill-opacity="1" /><path clip-path="url(#clip320)" d="M628.339 1451.02 L646.696 1451.02 L646.696 1454.96 L632.622 1454.96 L632.622 1463.43 Q633.64 1463.08 634.659 1462.92 Q635.677 1462.73 636.696 1462.73 Q642.483 1462.73 645.862 1465.9 Q649.242 1469.08 649.242 1474.49 Q649.242 1480.07 645.77 1483.17 Q642.297 1486.25 635.978 1486.25 Q633.802 1486.25 631.534 1485.88 Q629.288 1485.51 626.881 1484.77 L626.881 1480.07 Q628.964 1481.2 631.186 1481.76 Q633.409 1482.32 635.885 1482.32 Q639.89 1482.32 642.228 1480.21 Q644.566 1478.1 644.566 1474.49 Q644.566 1470.88 642.228 1468.77 Q639.89 1466.67 635.885 1466.67 Q634.01 1466.67 632.135 1467.08 Q630.284 1467.5 628.339 1468.38 L628.339 1451.02 Z" fill="#000000" fill-rule="nonzero" fill-opacity="1" /><path clip-path="url(#clip320)" d="M1047.51 1481.64 L1055.15 1481.64 L1055.15 1455.28 L1046.84 1456.95 L1046.84 1452.69 L1055.1 1451.02 L1059.78 1451.02 L1059.78 1481.64 L1067.42 1481.64 L1067.42 1485.58 L1047.51 1485.58 L1047.51 1481.64 Z" fill="#000000" fill-rule="nonzero" fill-opacity="1" /><path clip-path="url(#clip320)" d="M1086.86 1454.1 Q1083.25 1454.1 1081.42 1457.66 Q1079.62 1461.2 1079.62 1468.33 Q1079.62 1475.44 1081.42 1479.01 Q1083.25 1482.55 1086.86 1482.55 Q1090.5 1482.55 1092.3 1479.01 Q1094.13 1475.44 1094.13 1468.33 Q1094.13 1461.2 1092.3 1457.66 Q1090.5 1454.1 1086.86 1454.1 M1086.86 1450.39 Q1092.67 1450.39 1095.73 1455 Q1098.81 1459.58 1098.81 1468.33 Q1098.81 1477.06 1095.73 1481.67 Q1092.67 1486.25 1086.86 1486.25 Q1081.05 1486.25 1077.97 1481.67 Q1074.92 1477.06 1074.92 1468.33 Q1074.92 1459.58 1077.97 1455 Q1081.05 1450.39 1086.86 1450.39 Z" fill="#000000" fill-rule="nonzero" fill-opacity="1" /><path clip-path="url(#clip320)" d="M1482.77 1481.64 L1490.41 1481.64 L1490.41 1455.28 L1482.1 1456.95 L1482.1 1452.69 L1490.36 1451.02 L1495.04 1451.02 L1495.04 1481.64 L1502.67 1481.64 L1502.67 1485.58 L1482.77 1485.58 L1482.77 1481.64 Z" fill="#000000" fill-rule="nonzero" fill-opacity="1" /><path clip-path="url(#clip320)" d="M1512.17 1451.02 L1530.52 1451.02 L1530.52 1454.96 L1516.45 1454.96 L1516.45 1463.43 Q1517.47 1463.08 1518.48 1462.92 Q1519.5 1462.73 1520.52 1462.73 Q1526.31 1462.73 1529.69 1465.9 Q1533.07 1469.08 1533.07 1474.49 Q1533.07 1480.07 1529.6 1483.17 Q1526.12 1486.25 1519.8 1486.25 Q1517.63 1486.25 1515.36 1485.88 Q1513.11 1485.51 1510.71 1484.77 L1510.71 1480.07 Q1512.79 1481.2 1515.01 1481.76 Q1517.23 1482.32 1519.71 1482.32 Q1523.72 1482.32 1526.05 1480.21 Q1528.39 1478.1 1528.39 1474.49 Q1528.39 1470.88 1526.05 1468.77 Q1523.72 1466.67 1519.71 1466.67 Q1517.84 1466.67 1515.96 1467.08 Q1514.11 1467.5 1512.17 1468.38 L1512.17 1451.02 Z" fill="#000000" fill-rule="nonzero" fill-opacity="1" /><path clip-path="url(#clip320)" d="M1921.12 1481.64 L1937.43 1481.64 L1937.43 1485.58 L1915.49 1485.58 L1915.49 1481.64 Q1918.15 1478.89 1922.74 1474.26 Q1927.34 1469.61 1928.52 1468.27 Q1930.77 1465.74 1931.65 1464.01 Q1932.55 1462.25 1932.55 1460.56 Q1932.55 1457.8 1930.61 1456.07 Q1928.68 1454.33 1925.58 1454.33 Q1923.38 1454.33 1920.93 1455.09 Q1918.5 1455.86 1915.72 1457.41 L1915.72 1452.69 Q1918.55 1451.55 1921 1450.97 Q1923.45 1450.39 1925.49 1450.39 Q1930.86 1450.39 1934.06 1453.08 Q1937.25 1455.77 1937.25 1460.26 Q1937.25 1462.39 1936.44 1464.31 Q1935.65 1466.2 1933.55 1468.8 Q1932.97 1469.47 1929.87 1472.69 Q1926.76 1475.88 1921.12 1481.64 Z" fill="#000000" fill-rule="nonzero" fill-opacity="1" /><path clip-path="url(#clip320)" d="M1957.25 1454.1 Q1953.64 1454.1 1951.81 1457.66 Q1950 1461.2 1950 1468.33 Q1950 1475.44 1951.81 1479.01 Q1953.64 1482.55 1957.25 1482.55 Q1960.88 1482.55 1962.69 1479.01 Q1964.52 1475.44 1964.52 1468.33 Q1964.52 1461.2 1962.69 1457.66 Q1960.88 1454.1 1957.25 1454.1 M1957.25 1450.39 Q1963.06 1450.39 1966.12 1455 Q1969.19 1459.58 1969.19 1468.33 Q1969.19 1477.06 1966.12 1481.67 Q1963.06 1486.25 1957.25 1486.25 Q1951.44 1486.25 1948.36 1481.67 Q1945.31 1477.06 1945.31 1468.33 Q1945.31 1459.58 1948.36 1455 Q1951.44 1450.39 1957.25 1450.39 Z" fill="#000000" fill-rule="nonzero" fill-opacity="1" /><path clip-path="url(#clip320)" d="M1156.03 1520.52 L1162.46 1520.52 L1162.46 1540 L1185.82 1540 L1185.82 1520.52 L1192.25 1520.52 L1192.25 1568.04 L1185.82 1568.04 L1185.82 1545.41 L1162.46 1545.41 L1162.46 1568.04 L1156.03 1568.04 L1156.03 1520.52 Z" fill="#000000" fill-rule="nonzero" fill-opacity="1" /><path clip-path="url(#clip320)" d="M1218.61 1536.5 Q1213.89 1536.5 1211.16 1540.19 Q1208.42 1543.85 1208.42 1550.25 Q1208.42 1556.65 1211.13 1560.34 Q1213.86 1564 1218.61 1564 Q1223.28 1564 1226.02 1560.31 Q1228.76 1556.62 1228.76 1550.25 Q1228.76 1543.92 1226.02 1540.23 Q1223.28 1536.5 1218.61 1536.5 M1218.61 1531.54 Q1226.24 1531.54 1230.6 1536.5 Q1234.97 1541.47 1234.97 1550.25 Q1234.97 1559 1230.6 1564 Q1226.24 1568.97 1218.61 1568.97 Q1210.93 1568.97 1206.57 1564 Q1202.25 1559 1202.25 1550.25 Q1202.25 1541.47 1206.57 1536.5 Q1210.93 1531.54 1218.61 1531.54 Z" fill="#000000" fill-rule="nonzero" fill-opacity="1" /><path clip-path="url(#clip320)" d="M1244.07 1553.98 L1244.07 1532.4 L1249.92 1532.4 L1249.92 1553.75 Q1249.92 1558.81 1251.9 1561.36 Q1253.87 1563.87 1257.82 1563.87 Q1262.56 1563.87 1265.3 1560.85 Q1268.07 1557.83 1268.07 1552.61 L1268.07 1532.4 L1273.92 1532.4 L1273.92 1568.04 L1268.07 1568.04 L1268.07 1562.57 Q1265.93 1565.82 1263.1 1567.41 Q1260.3 1568.97 1256.58 1568.97 Q1250.43 1568.97 1247.25 1565.15 Q1244.07 1561.33 1244.07 1553.98 M1258.8 1531.54 L1258.8 1531.54 Z" fill="#000000" fill-rule="nonzero" fill-opacity="1" /><path clip-path="url(#clip320)" d="M1306.64 1537.87 Q1305.66 1537.3 1304.48 1537.04 Q1303.33 1536.76 1301.93 1536.76 Q1296.97 1536.76 1294.29 1540 Q1291.65 1543.22 1291.65 1549.27 L1291.65 1568.04 L1285.76 1568.04 L1285.76 1532.4 L1291.65 1532.4 L1291.65 1537.93 Q1293.5 1534.69 1296.46 1533.13 Q1299.42 1531.54 1303.65 1531.54 Q1304.26 1531.54 1304.99 1531.63 Q1305.72 1531.7 1306.61 1531.85 L1306.64 1537.87 Z" fill="#000000" fill-rule="nonzero" fill-opacity="1" /><path clip-path="url(#clip320)" d="M1335.51 1533.45 L1335.51 1538.98 Q1333.03 1537.71 1330.36 1537.07 Q1327.68 1536.44 1324.82 1536.44 Q1320.46 1536.44 1318.26 1537.77 Q1316.1 1539.11 1316.1 1541.79 Q1316.1 1543.82 1317.66 1545 Q1319.22 1546.15 1323.93 1547.2 L1325.93 1547.64 Q1332.17 1548.98 1334.78 1551.43 Q1337.42 1553.85 1337.42 1558.21 Q1337.42 1563.17 1333.47 1566.07 Q1329.56 1568.97 1322.68 1568.97 Q1319.82 1568.97 1316.7 1568.39 Q1313.61 1567.85 1310.18 1566.74 L1310.18 1560.69 Q1313.42 1562.38 1316.57 1563.24 Q1319.72 1564.07 1322.81 1564.07 Q1326.95 1564.07 1329.18 1562.66 Q1331.41 1561.23 1331.41 1558.65 Q1331.41 1556.27 1329.78 1554.99 Q1328.19 1553.72 1322.75 1552.54 L1320.71 1552.07 Q1315.27 1550.92 1312.85 1548.56 Q1310.43 1546.18 1310.43 1542.04 Q1310.43 1537.01 1314 1534.27 Q1317.56 1531.54 1324.12 1531.54 Q1327.36 1531.54 1330.23 1532.01 Q1333.09 1532.49 1335.51 1533.45 Z" fill="#000000" fill-rule="nonzero" fill-opacity="1" /><polyline clip-path="url(#clip322)" style="stroke:#000000; stroke-linecap:round; stroke-linejoin:round; stroke-width:2; stroke-opacity:0.1; fill:none" points="140.696,1384.24 2352.76,1384.24 "/>
<polyline clip-path="url(#clip322)" style="stroke:#000000; stroke-linecap:round; stroke-linejoin:round; stroke-width:2; stroke-opacity:0.1; fill:none" points="140.696,1124.63 2352.76,1124.63 "/>
<polyline clip-path="url(#clip322)" style="stroke:#000000; stroke-linecap:round; stroke-linejoin:round; stroke-width:2; stroke-opacity:0.1; fill:none" points="140.696,865.017 2352.76,865.017 "/>
<polyline clip-path="url(#clip322)" style="stroke:#000000; stroke-linecap:round; stroke-linejoin:round; stroke-width:2; stroke-opacity:0.1; fill:none" points="140.696,605.407 2352.76,605.407 "/>
<polyline clip-path="url(#clip322)" style="stroke:#000000; stroke-linecap:round; stroke-linejoin:round; stroke-width:2; stroke-opacity:0.1; fill:none" points="140.696,345.796 2352.76,345.796 "/>
<polyline clip-path="url(#clip322)" style="stroke:#000000; stroke-linecap:round; stroke-linejoin:round; stroke-width:2; stroke-opacity:0.1; fill:none" points="140.696,86.1857 2352.76,86.1857 "/>
<polyline clip-path="url(#clip320)" style="stroke:#000000; stroke-linecap:round; stroke-linejoin:round; stroke-width:4; stroke-opacity:1; fill:none" points="140.696,1423.18 140.696,47.2441 "/>
<polyline clip-path="url(#clip320)" style="stroke:#000000; stroke-linecap:round; stroke-linejoin:round; stroke-width:4; stroke-opacity:1; fill:none" points="140.696,1384.24 159.593,1384.24 "/>
<polyline clip-path="url(#clip320)" style="stroke:#000000; stroke-linecap:round; stroke-linejoin:round; stroke-width:4; stroke-opacity:1; fill:none" points="140.696,1124.63 159.593,1124.63 "/>
<polyline clip-path="url(#clip320)" style="stroke:#000000; stroke-linecap:round; stroke-linejoin:round; stroke-width:4; stroke-opacity:1; fill:none" points="140.696,865.017 159.593,865.017 "/>
<polyline clip-path="url(#clip320)" style="stroke:#000000; stroke-linecap:round; stroke-linejoin:round; stroke-width:4; stroke-opacity:1; fill:none" points="140.696,605.407 159.593,605.407 "/>
<polyline clip-path="url(#clip320)" style="stroke:#000000; stroke-linecap:round; stroke-linejoin:round; stroke-width:4; stroke-opacity:1; fill:none" points="140.696,345.796 159.593,345.796 "/>
<polyline clip-path="url(#clip320)" style="stroke:#000000; stroke-linecap:round; stroke-linejoin:round; stroke-width:4; stroke-opacity:1; fill:none" points="140.696,86.1857 159.593,86.1857 "/>
<path clip-path="url(#clip320)" d="M92.7512 1370.04 Q89.1401 1370.04 87.3114 1373.6 Q85.5058 1377.14 85.5058 1384.27 Q85.5058 1391.38 87.3114 1394.94 Q89.1401 1398.49 92.7512 1398.49 Q96.3854 1398.49 98.1909 1394.94 Q100.02 1391.38 100.02 1384.27 Q100.02 1377.14 98.1909 1373.6 Q96.3854 1370.04 92.7512 1370.04 M92.7512 1366.33 Q98.5613 1366.33 101.617 1370.94 Q104.696 1375.52 104.696 1384.27 Q104.696 1393 101.617 1397.61 Q98.5613 1402.19 92.7512 1402.19 Q86.941 1402.19 83.8623 1397.61 Q80.8068 1393 80.8068 1384.27 Q80.8068 1375.52 83.8623 1370.94 Q86.941 1366.33 92.7512 1366.33 Z" fill="#000000" fill-rule="nonzero" fill-opacity="1" /><path clip-path="url(#clip320)" d="M83.7929 1107.35 L102.149 1107.35 L102.149 1111.28 L88.0753 1111.28 L88.0753 1119.76 Q89.0938 1119.41 90.1123 1119.25 Q91.1308 1119.06 92.1493 1119.06 Q97.9363 1119.06 101.316 1122.23 Q104.696 1125.4 104.696 1130.82 Q104.696 1136.4 101.223 1139.5 Q97.7511 1142.58 91.4317 1142.58 Q89.2558 1142.58 86.9873 1142.21 Q84.7419 1141.84 82.3346 1141.1 L82.3346 1136.4 Q84.4179 1137.53 86.6401 1138.09 Q88.8623 1138.64 91.3391 1138.64 Q95.3437 1138.64 97.6817 1136.54 Q100.02 1134.43 100.02 1130.82 Q100.02 1127.21 97.6817 1125.1 Q95.3437 1123 91.3391 1123 Q89.4641 1123 87.5892 1123.41 Q85.7373 1123.83 83.7929 1124.71 L83.7929 1107.35 Z" fill="#000000" fill-rule="nonzero" fill-opacity="1" /><path clip-path="url(#clip320)" d="M53.3995 878.362 L61.0384 878.362 L61.0384 851.996 L52.7282 853.663 L52.7282 849.404 L60.9921 847.737 L65.668 847.737 L65.668 878.362 L73.3068 878.362 L73.3068 882.297 L53.3995 882.297 L53.3995 878.362 Z" fill="#000000" fill-rule="nonzero" fill-opacity="1" /><path clip-path="url(#clip320)" d="M92.7512 850.816 Q89.1401 850.816 87.3114 854.381 Q85.5058 857.922 85.5058 865.052 Q85.5058 872.158 87.3114 875.723 Q89.1401 879.265 92.7512 879.265 Q96.3854 879.265 98.1909 875.723 Q100.02 872.158 100.02 865.052 Q100.02 857.922 98.1909 854.381 Q96.3854 850.816 92.7512 850.816 M92.7512 847.112 Q98.5613 847.112 101.617 851.719 Q104.696 856.302 104.696 865.052 Q104.696 873.779 101.617 878.385 Q98.5613 882.969 92.7512 882.969 Q86.941 882.969 83.8623 878.385 Q80.8068 873.779 80.8068 865.052 Q80.8068 856.302 83.8623 851.719 Q86.941 847.112 92.7512 847.112 Z" fill="#000000" fill-rule="nonzero" fill-opacity="1" /><path clip-path="url(#clip320)" d="M54.3949 618.752 L62.0337 618.752 L62.0337 592.386 L53.7236 594.053 L53.7236 589.793 L61.9874 588.127 L66.6633 588.127 L66.6633 618.752 L74.3022 618.752 L74.3022 622.687 L54.3949 622.687 L54.3949 618.752 Z" fill="#000000" fill-rule="nonzero" fill-opacity="1" /><path clip-path="url(#clip320)" d="M83.7929 588.127 L102.149 588.127 L102.149 592.062 L88.0753 592.062 L88.0753 600.534 Q89.0938 600.187 90.1123 600.025 Q91.1308 599.84 92.1493 599.84 Q97.9363 599.84 101.316 603.011 Q104.696 606.182 104.696 611.599 Q104.696 617.177 101.223 620.279 Q97.7511 623.358 91.4317 623.358 Q89.2558 623.358 86.9873 622.988 Q84.7419 622.617 82.3346 621.877 L82.3346 617.177 Q84.4179 618.312 86.6401 618.867 Q88.8623 619.423 91.3391 619.423 Q95.3437 619.423 97.6817 617.316 Q100.02 615.21 100.02 611.599 Q100.02 607.988 97.6817 605.881 Q95.3437 603.775 91.3391 603.775 Q89.4641 603.775 87.5892 604.191 Q85.7373 604.608 83.7929 605.488 L83.7929 588.127 Z" fill="#000000" fill-rule="nonzero" fill-opacity="1" /><path clip-path="url(#clip320)" d="M56.6171 359.141 L72.9365 359.141 L72.9365 363.076 L50.9921 363.076 L50.9921 359.141 Q53.6541 356.386 58.2375 351.757 Q62.8439 347.104 64.0245 345.761 Q66.2698 343.238 67.1494 341.502 Q68.0522 339.743 68.0522 338.053 Q68.0522 335.299 66.1078 333.562 Q64.1865 331.826 61.0847 331.826 Q58.8856 331.826 56.4319 332.59 Q54.0014 333.354 51.2236 334.905 L51.2236 330.183 Q54.0477 329.049 56.5014 328.47 Q58.955 327.891 60.9921 327.891 Q66.3624 327.891 69.5568 330.576 Q72.7513 333.262 72.7513 337.752 Q72.7513 339.882 71.9411 341.803 Q71.1541 343.701 69.0476 346.294 Q68.4689 346.965 65.367 350.183 Q62.2652 353.377 56.6171 359.141 Z" fill="#000000" fill-rule="nonzero" fill-opacity="1" /><path clip-path="url(#clip320)" d="M92.7512 331.595 Q89.1401 331.595 87.3114 335.16 Q85.5058 338.701 85.5058 345.831 Q85.5058 352.937 87.3114 356.502 Q89.1401 360.044 92.7512 360.044 Q96.3854 360.044 98.1909 356.502 Q100.02 352.937 100.02 345.831 Q100.02 338.701 98.1909 335.16 Q96.3854 331.595 92.7512 331.595 M92.7512 327.891 Q98.5613 327.891 101.617 332.498 Q104.696 337.081 104.696 345.831 Q104.696 354.558 101.617 359.164 Q98.5613 363.747 92.7512 363.747 Q86.941 363.747 83.8623 359.164 Q80.8068 354.558 80.8068 345.831 Q80.8068 337.081 83.8623 332.498 Q86.941 327.891 92.7512 327.891 Z" fill="#000000" fill-rule="nonzero" fill-opacity="1" /><path clip-path="url(#clip320)" d="M57.6125 99.5305 L73.9318 99.5305 L73.9318 103.466 L51.9875 103.466 L51.9875 99.5305 Q54.6495 96.7759 59.2328 92.1463 Q63.8393 87.4935 65.0198 86.151 Q67.2652 83.6278 68.1448 81.8917 Q69.0476 80.1325 69.0476 78.4427 Q69.0476 75.688 67.1032 73.9519 Q65.1819 72.2158 62.08 72.2158 Q59.881 72.2158 57.4273 72.9797 Q54.9967 73.7436 52.219 75.2945 L52.219 70.5723 Q55.043 69.4381 57.4967 68.8594 Q59.9504 68.2807 61.9874 68.2807 Q67.3578 68.2807 70.5522 70.9658 Q73.7466 73.651 73.7466 78.1417 Q73.7466 80.2714 72.9365 82.1926 Q72.1494 84.0908 70.0429 86.6834 Q69.4642 87.3546 66.3624 90.5722 Q63.2606 93.7667 57.6125 99.5305 Z" fill="#000000" fill-rule="nonzero" fill-opacity="1" /><path clip-path="url(#clip320)" d="M83.7929 68.9057 L102.149 68.9057 L102.149 72.8408 L88.0753 72.8408 L88.0753 81.313 Q89.0938 80.9658 90.1123 80.8038 Q91.1308 80.6186 92.1493 80.6186 Q97.9363 80.6186 101.316 83.7899 Q104.696 86.9611 104.696 92.3778 Q104.696 97.9564 101.223 101.058 Q97.7511 104.137 91.4317 104.137 Q89.2558 104.137 86.9873 103.767 Q84.7419 103.396 82.3346 102.655 L82.3346 97.9564 Q84.4179 99.0907 86.6401 99.6462 Q88.8623 100.202 91.3391 100.202 Q95.3437 100.202 97.6817 98.0953 Q100.02 95.9889 100.02 92.3778 Q100.02 88.7667 97.6817 86.6602 Q95.3437 84.5537 91.3391 84.5537 Q89.4641 84.5537 87.5892 84.9704 Q85.7373 85.3871 83.7929 86.2667 L83.7929 68.9057 Z" fill="#000000" fill-rule="nonzero" fill-opacity="1" /><polyline clip-path="url(#clip322)" style="stroke:#009af9; stroke-linecap:round; stroke-linejoin:round; stroke-width:4; stroke-opacity:1; fill:none" points="203.301,1384.24 290.253,1384.24 377.205,1384.24 464.157,1384.24 551.109,1384.24 638.061,1384.24 725.013,1384.24 811.965,1384.24 898.917,1384.24 985.87,1332.32 1072.82,1332.32 1159.77,1332.32 1246.73,1332.32 1333.68,1332.32 1420.63,1332.32 1507.58,1332.32 1594.53,1332.32 1681.49,1384.24 1768.44,1384.24 1855.39,1384.24 1942.34,1384.24 2029.29,1384.24 2116.25,1384.24 2203.2,1384.24 2290.15,1384.24 "/>
<polyline clip-path="url(#clip322)" style="stroke:#e26f46; stroke-linecap:round; stroke-linejoin:round; stroke-width:4; stroke-opacity:1; fill:none" points="203.301,475.601 290.253,524.278 377.205,572.955 464.157,621.632 551.109,670.309 638.061,718.986 725.013,767.663 811.965,816.34 898.917,865.017 985.87,767.663 1072.82,670.309 1159.77,572.955 1246.73,475.601 1333.68,378.248 1420.63,280.894 1507.58,183.54 1594.53,86.1857 1681.49,134.863 1768.44,183.54 1855.39,232.217 1942.34,280.894 2029.29,329.571 2116.25,378.248 2203.2,426.924 2290.15,475.601 "/>
<polyline clip-path="url(#clip322)" style="stroke:#000000; stroke-linecap:round; stroke-linejoin:round; stroke-width:4; stroke-opacity:1; fill:none" stroke-dasharray="16, 10" points="898.917,2799.12 898.917,-1328.69 "/>
<polyline clip-path="url(#clip322)" style="stroke:#000000; stroke-linecap:round; stroke-linejoin:round; stroke-width:4; stroke-opacity:1; fill:none" stroke-dasharray="16, 10" points="1594.53,2799.12 1594.53,-1328.69 "/>
<path clip-path="url(#clip320)" d="M214.431 248.629 L733.552 248.629 L733.552 93.1086 L214.431 93.1086  Z" fill="#ffffff" fill-rule="evenodd" fill-opacity="1"/>
<polyline clip-path="url(#clip320)" style="stroke:#000000; stroke-linecap:round; stroke-linejoin:round; stroke-width:4; stroke-opacity:1; fill:none" points="214.431,248.629 733.552,248.629 733.552,93.1086 214.431,93.1086 214.431,248.629 "/>
<polyline clip-path="url(#clip320)" style="stroke:#009af9; stroke-linecap:round; stroke-linejoin:round; stroke-width:4; stroke-opacity:1; fill:none" points="239.009,144.949 386.48,144.949 "/>
<path clip-path="url(#clip320)" d="M411.058 127.669 L415.734 127.669 L415.734 158.293 L432.563 158.293 L432.563 162.229 L411.058 162.229 L411.058 127.669 Z" fill="#000000" fill-rule="nonzero" fill-opacity="1" /><path clip-path="url(#clip320)" d="M437.285 136.303 L441.544 136.303 L441.544 162.229 L437.285 162.229 L437.285 136.303 M437.285 126.21 L441.544 126.21 L441.544 131.604 L437.285 131.604 L437.285 126.21 Z" fill="#000000" fill-rule="nonzero" fill-opacity="1" /><path clip-path="url(#clip320)" d="M467.517 148.965 Q467.517 144.335 465.595 141.789 Q463.697 139.243 460.248 139.243 Q456.822 139.243 454.901 141.789 Q453.003 144.335 453.003 148.965 Q453.003 153.571 454.901 156.118 Q456.822 158.664 460.248 158.664 Q463.697 158.664 465.595 156.118 Q467.517 153.571 467.517 148.965 M471.776 159.011 Q471.776 165.631 468.836 168.849 Q465.896 172.09 459.831 172.09 Q457.586 172.09 455.595 171.742 Q453.605 171.418 451.73 170.724 L451.73 166.58 Q453.605 167.599 455.433 168.085 Q457.262 168.571 459.16 168.571 Q463.35 168.571 465.433 166.372 Q467.517 164.196 467.517 159.775 L467.517 157.668 Q466.197 159.96 464.137 161.094 Q462.077 162.229 459.206 162.229 Q454.438 162.229 451.521 158.594 Q448.605 154.96 448.605 148.965 Q448.605 142.946 451.521 139.312 Q454.438 135.678 459.206 135.678 Q462.077 135.678 464.137 136.812 Q466.197 137.946 467.517 140.238 L467.517 136.303 L471.776 136.303 L471.776 159.011 Z" fill="#000000" fill-rule="nonzero" fill-opacity="1" /><path clip-path="url(#clip320)" d="M502.1 146.581 L502.1 162.229 L497.84 162.229 L497.84 146.719 Q497.84 143.039 496.405 141.21 Q494.97 139.382 492.1 139.382 Q488.651 139.382 486.66 141.581 Q484.669 143.78 484.669 147.576 L484.669 162.229 L480.387 162.229 L480.387 126.21 L484.669 126.21 L484.669 140.331 Q486.197 137.993 488.257 136.835 Q490.34 135.678 493.049 135.678 Q497.516 135.678 499.808 138.456 Q502.1 141.21 502.1 146.581 Z" fill="#000000" fill-rule="nonzero" fill-opacity="1" /><path clip-path="url(#clip320)" d="M514.808 128.942 L514.808 136.303 L523.581 136.303 L523.581 139.613 L514.808 139.613 L514.808 153.687 Q514.808 156.858 515.664 157.761 Q516.544 158.664 519.206 158.664 L523.581 158.664 L523.581 162.229 L519.206 162.229 Q514.276 162.229 512.401 160.4 Q510.526 158.548 510.526 153.687 L510.526 139.613 L507.401 139.613 L507.401 136.303 L510.526 136.303 L510.526 128.942 L514.808 128.942 Z" fill="#000000" fill-rule="nonzero" fill-opacity="1" /><polyline clip-path="url(#clip320)" style="stroke:#e26f46; stroke-linecap:round; stroke-linejoin:round; stroke-width:4; stroke-opacity:1; fill:none" points="239.009,196.789 386.48,196.789 "/>
<path clip-path="url(#clip320)" d="M411.058 179.509 L440.294 179.509 L440.294 183.444 L428.026 183.444 L428.026 214.069 L423.327 214.069 L423.327 183.444 L411.058 183.444 L411.058 179.509 Z" fill="#000000" fill-rule="nonzero" fill-opacity="1" /><path clip-path="url(#clip320)" d="M458.743 200.041 L458.743 202.124 L439.16 202.124 Q439.438 206.522 441.799 208.837 Q444.183 211.129 448.419 211.129 Q450.873 211.129 453.165 210.527 Q455.48 209.925 457.748 208.721 L457.748 212.749 Q455.456 213.721 453.049 214.231 Q450.642 214.74 448.165 214.74 Q441.961 214.74 438.327 211.129 Q434.716 207.518 434.716 201.36 Q434.716 194.995 438.142 191.268 Q441.591 187.518 447.424 187.518 Q452.655 187.518 455.688 190.897 Q458.743 194.254 458.743 200.041 M454.484 198.791 Q454.438 195.296 452.517 193.212 Q450.618 191.129 447.47 191.129 Q443.906 191.129 441.753 193.143 Q439.623 195.157 439.299 198.814 L454.484 198.791 Z" fill="#000000" fill-rule="nonzero" fill-opacity="1" /><path clip-path="url(#clip320)" d="M485.919 193.12 Q487.516 190.249 489.739 188.884 Q491.961 187.518 494.97 187.518 Q499.021 187.518 501.22 190.365 Q503.419 193.189 503.419 198.421 L503.419 214.069 L499.137 214.069 L499.137 198.559 Q499.137 194.833 497.817 193.027 Q496.498 191.222 493.79 191.222 Q490.479 191.222 488.558 193.421 Q486.637 195.62 486.637 199.416 L486.637 214.069 L482.354 214.069 L482.354 198.559 Q482.354 194.809 481.035 193.027 Q479.716 191.222 476.961 191.222 Q473.697 191.222 471.776 193.444 Q469.854 195.643 469.854 199.416 L469.854 214.069 L465.572 214.069 L465.572 188.143 L469.854 188.143 L469.854 192.171 Q471.313 189.786 473.35 188.652 Q475.387 187.518 478.188 187.518 Q481.012 187.518 482.979 188.953 Q484.97 190.388 485.919 193.12 Z" fill="#000000" fill-rule="nonzero" fill-opacity="1" /><path clip-path="url(#clip320)" d="M516.035 210.18 L516.035 223.93 L511.752 223.93 L511.752 188.143 L516.035 188.143 L516.035 192.078 Q517.377 189.763 519.414 188.652 Q521.475 187.518 524.322 187.518 Q529.044 187.518 531.984 191.268 Q534.947 195.018 534.947 201.129 Q534.947 207.24 531.984 210.99 Q529.044 214.74 524.322 214.74 Q521.475 214.74 519.414 213.629 Q517.377 212.495 516.035 210.18 M530.525 201.129 Q530.525 196.43 528.581 193.768 Q526.66 191.083 523.28 191.083 Q519.9 191.083 517.956 193.768 Q516.035 196.43 516.035 201.129 Q516.035 205.828 517.956 208.513 Q519.9 211.175 523.28 211.175 Q526.66 211.175 528.581 208.513 Q530.525 205.828 530.525 201.129 Z" fill="#000000" fill-rule="nonzero" fill-opacity="1" /><path clip-path="url(#clip320)" d="M564.183 200.041 L564.183 202.124 L544.599 202.124 Q544.877 206.522 547.238 208.837 Q549.623 211.129 553.859 211.129 Q556.312 211.129 558.604 210.527 Q560.919 209.925 563.187 208.721 L563.187 212.749 Q560.896 213.721 558.488 214.231 Q556.081 214.74 553.604 214.74 Q547.4 214.74 543.766 211.129 Q540.155 207.518 540.155 201.36 Q540.155 194.995 543.581 191.268 Q547.03 187.518 552.863 187.518 Q558.095 187.518 561.127 190.897 Q564.183 194.254 564.183 200.041 M559.923 198.791 Q559.877 195.296 557.956 193.212 Q556.058 191.129 552.91 191.129 Q549.345 191.129 547.192 193.143 Q545.062 195.157 544.738 198.814 L559.923 198.791 Z" fill="#000000" fill-rule="nonzero" fill-opacity="1" /><path clip-path="url(#clip320)" d="M586.196 192.124 Q585.479 191.708 584.622 191.522 Q583.789 191.314 582.771 191.314 Q579.159 191.314 577.215 193.675 Q575.294 196.013 575.294 200.411 L575.294 214.069 L571.011 214.069 L571.011 188.143 L575.294 188.143 L575.294 192.171 Q576.636 189.809 578.789 188.675 Q580.942 187.518 584.021 187.518 Q584.46 187.518 584.993 187.587 Q585.525 187.634 586.173 187.749 L586.196 192.124 Z" fill="#000000" fill-rule="nonzero" fill-opacity="1" /><path clip-path="url(#clip320)" d="M602.446 201.036 Q597.284 201.036 595.294 202.217 Q593.303 203.397 593.303 206.245 Q593.303 208.513 594.784 209.856 Q596.289 211.175 598.858 211.175 Q602.4 211.175 604.53 208.675 Q606.682 206.152 606.682 201.985 L606.682 201.036 L602.446 201.036 M610.942 199.277 L610.942 214.069 L606.682 214.069 L606.682 210.133 Q605.224 212.495 603.048 213.629 Q600.872 214.74 597.724 214.74 Q593.743 214.74 591.382 212.518 Q589.044 210.272 589.044 206.522 Q589.044 202.147 591.96 199.925 Q594.9 197.703 600.71 197.703 L606.682 197.703 L606.682 197.286 Q606.682 194.347 604.738 192.749 Q602.817 191.129 599.321 191.129 Q597.099 191.129 594.993 191.661 Q592.886 192.194 590.942 193.259 L590.942 189.323 Q593.28 188.421 595.479 187.981 Q597.678 187.518 599.761 187.518 Q605.386 187.518 608.164 190.434 Q610.942 193.351 610.942 199.277 Z" fill="#000000" fill-rule="nonzero" fill-opacity="1" /><path clip-path="url(#clip320)" d="M623.928 180.782 L623.928 188.143 L632.701 188.143 L632.701 191.453 L623.928 191.453 L623.928 205.527 Q623.928 208.698 624.784 209.601 Q625.664 210.504 628.326 210.504 L632.701 210.504 L632.701 214.069 L628.326 214.069 Q623.395 214.069 621.52 212.24 Q619.645 210.388 619.645 205.527 L619.645 191.453 L616.52 191.453 L616.52 188.143 L619.645 188.143 L619.645 180.782 L623.928 180.782 Z" fill="#000000" fill-rule="nonzero" fill-opacity="1" /><path clip-path="url(#clip320)" d="M637.863 203.837 L637.863 188.143 L642.122 188.143 L642.122 203.675 Q642.122 207.356 643.557 209.208 Q644.992 211.036 647.863 211.036 Q651.312 211.036 653.303 208.837 Q655.316 206.638 655.316 202.842 L655.316 188.143 L659.576 188.143 L659.576 214.069 L655.316 214.069 L655.316 210.087 Q653.766 212.448 651.705 213.606 Q649.668 214.74 646.96 214.74 Q642.492 214.74 640.178 211.962 Q637.863 209.184 637.863 203.837 M648.58 187.518 L648.58 187.518 Z" fill="#000000" fill-rule="nonzero" fill-opacity="1" /><path clip-path="url(#clip320)" d="M683.372 192.124 Q682.654 191.708 681.798 191.522 Q680.964 191.314 679.946 191.314 Q676.335 191.314 674.39 193.675 Q672.469 196.013 672.469 200.411 L672.469 214.069 L668.187 214.069 L668.187 188.143 L672.469 188.143 L672.469 192.171 Q673.812 189.809 675.964 188.675 Q678.117 187.518 681.196 187.518 Q681.636 187.518 682.168 187.587 Q682.701 187.634 683.349 187.749 L683.372 192.124 Z" fill="#000000" fill-rule="nonzero" fill-opacity="1" /><path clip-path="url(#clip320)" d="M708.974 200.041 L708.974 202.124 L689.39 202.124 Q689.668 206.522 692.029 208.837 Q694.413 211.129 698.65 211.129 Q701.103 211.129 703.395 210.527 Q705.71 209.925 707.978 208.721 L707.978 212.749 Q705.687 213.721 703.279 214.231 Q700.872 214.74 698.395 214.74 Q692.191 214.74 688.557 211.129 Q684.946 207.518 684.946 201.36 Q684.946 194.995 688.372 191.268 Q691.821 187.518 697.654 187.518 Q702.886 187.518 705.918 190.897 Q708.974 194.254 708.974 200.041 M704.714 198.791 Q704.668 195.296 702.747 193.212 Q700.849 191.129 697.7 191.129 Q694.136 191.129 691.983 193.143 Q689.853 195.157 689.529 198.814 L704.714 198.791 Z" fill="#000000" fill-rule="nonzero" fill-opacity="1" /></svg>
