<?xml version="1.0" encoding="utf-8"?>
<svg xmlns="http://www.w3.org/2000/svg" xmlns:xlink="http://www.w3.org/1999/xlink" width="600" height="400" viewBox="0 0 2400 1600">
<defs>
  <clipPath id="clip620">
    <rect x="0" y="0" width="2400" height="1600"/>
  </clipPath>
</defs>
<path clip-path="url(#clip620)" d="M0 1600 L2400 1600 L2400 0 L0 0  Z" fill="#ffffff" fill-rule="evenodd" fill-opacity="1"/>
<defs>
  <clipPath id="clip621">
    <rect x="480" y="0" width="1681" height="1600"/>
  </clipPath>
</defs>
<path clip-path="url(#clip620)" d="M112.177 1486.45 L2352.76 1486.45 L2352.76 123.472 L112.177 123.472  Z" fill="#ffffff" fill-rule="evenodd" fill-opacity="1"/>
<defs>
  <clipPath id="clip622">
    <rect x="112" y="123" width="2242" height="1364"/>
  </clipPath>
</defs>
<polyline clip-path="url(#clip622)" style="stroke:#000000; stroke-linecap:round; stroke-linejoin:round; stroke-width:2; stroke-opacity:0.1; fill:none" points="175.59,1486.45 175.59,123.472 "/>
<polyline clip-path="url(#clip622)" style="stroke:#000000; stroke-linecap:round; stroke-linejoin:round; stroke-width:2; stroke-opacity:0.1; fill:none" points="704.028,1486.45 704.028,123.472 "/>
<polyline clip-path="url(#clip622)" style="stroke:#000000; stroke-linecap:round; stroke-linejoin:round; stroke-width:2; stroke-opacity:0.1; fill:none" points="1232.47,1486.45 1232.47,123.472 "/>
<polyline clip-path="url(#clip622)" style="stroke:#000000; stroke-linecap:round; stroke-linejoin:round; stroke-width:2; stroke-opacity:0.1; fill:none" points="1760.9,1486.45 1760.9,123.472 "/>
<polyline clip-path="url(#clip622)" style="stroke:#000000; stroke-linecap:round; stroke-linejoin:round; stroke-width:2; stroke-opacity:0.1; fill:none" points="2289.34,1486.45 2289.34,123.472 "/>
<polyline clip-path="url(#clip620)" style="stroke:#000000; stroke-linecap:round; stroke-linejoin:round; stroke-width:4; stroke-opacity:1; fill:none" points="112.177,1486.45 2352.76,1486.45 "/>
<polyline clip-path="url(#clip620)" style="stroke:#000000; stroke-linecap:round; stroke-linejoin:round; stroke-width:4; stroke-opacity:1; fill:none" points="175.59,1486.45 175.59,1467.55 "/>
<polyline clip-path="url(#clip620)" style="stroke:#000000; stroke-linecap:round; stroke-linejoin:round; stroke-width:4; stroke-opacity:1; fill:none" points="704.028,1486.45 704.028,1467.55 "/>
<polyline clip-path="url(#clip620)" style="stroke:#000000; stroke-linecap:round; stroke-linejoin:round; stroke-width:4; stroke-opacity:1; fill:none" points="1232.47,1486.45 1232.47,1467.55 "/>
<polyline clip-path="url(#clip620)" style="stroke:#000000; stroke-linecap:round; stroke-linejoin:round; stroke-width:4; stroke-opacity:1; fill:none" points="1760.9,1486.45 1760.9,1467.55 "/>
<polyline clip-path="url(#clip620)" style="stroke:#000000; stroke-linecap:round; stroke-linejoin:round; stroke-width:4; stroke-opacity:1; fill:none" points="2289.34,1486.45 2289.34,1467.55 "/>
<path clip-path="url(#clip620)" d="M175.59 1517.37 Q171.979 1517.37 170.15 1520.93 Q168.344 1524.47 168.344 1531.6 Q168.344 1538.71 170.15 1542.27 Q171.979 1545.82 175.59 1545.82 Q179.224 1545.82 181.03 1542.27 Q182.858 1538.71 182.858 1531.6 Q182.858 1524.47 181.03 1520.93 Q179.224 1517.37 175.59 1517.37 M175.59 1513.66 Q181.4 1513.66 184.455 1518.27 Q187.534 1522.85 187.534 1531.6 Q187.534 1540.33 184.455 1544.94 Q181.4 1549.52 175.59 1549.52 Q169.78 1549.52 166.701 1544.94 Q163.645 1540.33 163.645 1531.6 Q163.645 1522.85 166.701 1518.27 Q169.78 1513.66 175.59 1513.66 Z" fill="#000000" fill-rule="nonzero" fill-opacity="1" /><path clip-path="url(#clip620)" d="M678.716 1544.91 L686.355 1544.91 L686.355 1518.55 L678.045 1520.21 L678.045 1515.95 L686.308 1514.29 L690.984 1514.29 L690.984 1544.91 L698.623 1544.91 L698.623 1548.85 L678.716 1548.85 L678.716 1544.91 Z" fill="#000000" fill-rule="nonzero" fill-opacity="1" /><path clip-path="url(#clip620)" d="M718.067 1517.37 Q714.456 1517.37 712.628 1520.93 Q710.822 1524.47 710.822 1531.6 Q710.822 1538.71 712.628 1542.27 Q714.456 1545.82 718.067 1545.82 Q721.702 1545.82 723.507 1542.27 Q725.336 1538.71 725.336 1531.6 Q725.336 1524.47 723.507 1520.93 Q721.702 1517.37 718.067 1517.37 M718.067 1513.66 Q723.878 1513.66 726.933 1518.27 Q730.012 1522.85 730.012 1531.6 Q730.012 1540.33 726.933 1544.94 Q723.878 1549.52 718.067 1549.52 Q712.257 1549.52 709.179 1544.94 Q706.123 1540.33 706.123 1531.6 Q706.123 1522.85 709.179 1518.27 Q712.257 1513.66 718.067 1513.66 Z" fill="#000000" fill-rule="nonzero" fill-opacity="1" /><path clip-path="url(#clip620)" d="M1211.24 1544.91 L1227.56 1544.91 L1227.56 1548.85 L1205.61 1548.85 L1205.61 1544.91 Q1208.28 1542.16 1212.86 1537.53 Q1217.47 1532.88 1218.65 1531.53 Q1220.89 1529.01 1221.77 1527.27 Q1222.67 1525.51 1222.67 1523.82 Q1222.67 1521.07 1220.73 1519.33 Q1218.81 1517.6 1215.71 1517.6 Q1213.51 1517.6 1211.05 1518.36 Q1208.62 1519.13 1205.85 1520.68 L1205.85 1515.95 Q1208.67 1514.82 1211.12 1514.24 Q1213.58 1513.66 1215.61 1513.66 Q1220.99 1513.66 1224.18 1516.35 Q1227.37 1519.03 1227.37 1523.52 Q1227.37 1525.65 1226.56 1527.57 Q1225.78 1529.47 1223.67 1532.07 Q1223.09 1532.74 1219.99 1535.95 Q1216.89 1539.15 1211.24 1544.91 Z" fill="#000000" fill-rule="nonzero" fill-opacity="1" /><path clip-path="url(#clip620)" d="M1247.37 1517.37 Q1243.76 1517.37 1241.93 1520.93 Q1240.13 1524.47 1240.13 1531.6 Q1240.13 1538.71 1241.93 1542.27 Q1243.76 1545.82 1247.37 1545.82 Q1251.01 1545.82 1252.81 1542.27 Q1254.64 1538.71 1254.64 1531.6 Q1254.64 1524.47 1252.81 1520.93 Q1251.01 1517.37 1247.37 1517.37 M1247.37 1513.66 Q1253.18 1513.66 1256.24 1518.27 Q1259.32 1522.85 1259.32 1531.6 Q1259.32 1540.33 1256.24 1544.94 Q1253.18 1549.52 1247.37 1549.52 Q1241.56 1549.52 1238.49 1544.94 Q1235.43 1540.33 1235.43 1531.6 Q1235.43 1522.85 1238.49 1518.27 Q1241.56 1513.66 1247.37 1513.66 Z" fill="#000000" fill-rule="nonzero" fill-opacity="1" /><path clip-path="url(#clip620)" d="M1749.75 1530.21 Q1753.1 1530.93 1754.98 1533.2 Q1756.88 1535.47 1756.88 1538.8 Q1756.88 1543.92 1753.36 1546.72 Q1749.84 1549.52 1743.36 1549.52 Q1741.18 1549.52 1738.87 1549.08 Q1736.58 1548.66 1734.12 1547.81 L1734.12 1543.29 Q1736.07 1544.43 1738.38 1545.01 Q1740.7 1545.58 1743.22 1545.58 Q1747.62 1545.58 1749.91 1543.85 Q1752.22 1542.11 1752.22 1538.8 Q1752.22 1535.75 1750.07 1534.03 Q1747.94 1532.3 1744.12 1532.3 L1740.09 1532.3 L1740.09 1528.45 L1744.31 1528.45 Q1747.76 1528.45 1749.59 1527.09 Q1751.41 1525.7 1751.41 1523.11 Q1751.41 1520.45 1749.52 1519.03 Q1747.64 1517.6 1744.12 1517.6 Q1742.2 1517.6 1740 1518.01 Q1737.8 1518.43 1735.16 1519.31 L1735.16 1515.14 Q1737.83 1514.4 1740.14 1514.03 Q1742.48 1513.66 1744.54 1513.66 Q1749.86 1513.66 1752.97 1516.09 Q1756.07 1518.5 1756.07 1522.62 Q1756.07 1525.49 1754.42 1527.48 Q1752.78 1529.45 1749.75 1530.21 Z" fill="#000000" fill-rule="nonzero" fill-opacity="1" /><path clip-path="url(#clip620)" d="M1775.74 1517.37 Q1772.13 1517.37 1770.3 1520.93 Q1768.5 1524.47 1768.5 1531.6 Q1768.5 1538.71 1770.3 1542.27 Q1772.13 1545.82 1775.74 1545.82 Q1779.38 1545.82 1781.18 1542.27 Q1783.01 1538.71 1783.01 1531.6 Q1783.01 1524.47 1781.18 1520.93 Q1779.38 1517.37 1775.74 1517.37 M1775.74 1513.66 Q1781.55 1513.66 1784.61 1518.27 Q1787.69 1522.85 1787.69 1531.6 Q1787.69 1540.33 1784.61 1544.94 Q1781.55 1549.52 1775.74 1549.52 Q1769.93 1549.52 1766.85 1544.94 Q1763.8 1540.33 1763.8 1531.6 Q1763.8 1522.85 1766.85 1518.27 Q1769.93 1513.66 1775.74 1513.66 Z" fill="#000000" fill-rule="nonzero" fill-opacity="1" /><path clip-path="url(#clip620)" d="M2277.51 1518.36 L2265.71 1536.81 L2277.51 1536.81 L2277.51 1518.36 M2276.29 1514.29 L2282.17 1514.29 L2282.17 1536.81 L2287.1 1536.81 L2287.1 1540.7 L2282.17 1540.7 L2282.17 1548.85 L2277.51 1548.85 L2277.51 1540.7 L2261.91 1540.7 L2261.91 1536.19 L2276.29 1514.29 Z" fill="#000000" fill-rule="nonzero" fill-opacity="1" /><path clip-path="url(#clip620)" d="M2304.83 1517.37 Q2301.22 1517.37 2299.39 1520.93 Q2297.58 1524.47 2297.58 1531.6 Q2297.58 1538.71 2299.39 1542.27 Q2301.22 1545.82 2304.83 1545.82 Q2308.46 1545.82 2310.27 1542.27 Q2312.1 1538.71 2312.1 1531.6 Q2312.1 1524.47 2310.27 1520.93 Q2308.46 1517.37 2304.83 1517.37 M2304.83 1513.66 Q2310.64 1513.66 2313.7 1518.27 Q2316.77 1522.85 2316.77 1531.6 Q2316.77 1540.33 2313.7 1544.94 Q2310.64 1549.52 2304.83 1549.52 Q2299.02 1549.52 2295.94 1544.94 Q2292.88 1540.33 2292.88 1531.6 Q2292.88 1522.85 2295.94 1518.27 Q2299.02 1513.66 2304.83 1513.66 Z" fill="#000000" fill-rule="nonzero" fill-opacity="1" /><polyline clip-path="url(#clip622)" style="stroke:#000000; stroke-linecap:round; stroke-linejoin:round; stroke-width:2; stroke-opacity:0.1; fill:none" points="112.177,1447.88 2352.76,1447.88 "/>
<polyline clip-path="url(#clip622)" style="stroke:#000000; stroke-linecap:round; stroke-linejoin:round; stroke-width:2; stroke-opacity:0.1; fill:none" points="112.177,1229.66 2352.76,1229.66 "/>
<polyline clip-path="url(#clip622)" style="stroke:#000000; stroke-linecap:round; stroke-linejoin:round; stroke-width:2; stroke-opacity:0.1; fill:none" points="112.177,1011.43 2352.76,1011.43 "/>
<polyline clip-path="url(#clip622)" style="stroke:#000000; stroke-linecap:round; stroke-linejoin:round; stroke-width:2; stroke-opacity:0.1; fill:none" points="112.177,793.199 2352.76,793.199 "/>
<polyline clip-path="url(#clip622)" style="stroke:#000000; stroke-linecap:round; stroke-linejoin:round; stroke-width:2; stroke-opacity:0.1; fill:none" points="112.177,574.971 2352.76,574.971 "/>
<polyline clip-path="url(#clip622)" style="stroke:#000000; stroke-linecap:round; stroke-linejoin:round; stroke-width:2; stroke-opacity:0.1; fill:none" points="112.177,356.743 2352.76,356.743 "/>
<polyline clip-path="url(#clip622)" style="stroke:#000000; stroke-linecap:round; stroke-linejoin:round; stroke-width:2; stroke-opacity:0.1; fill:none" points="112.177,138.515 2352.76,138.515 "/>
<polyline clip-path="url(#clip620)" style="stroke:#000000; stroke-linecap:round; stroke-linejoin:round; stroke-width:4; stroke-opacity:1; fill:none" points="112.177,1486.45 112.177,123.472 "/>
<polyline clip-path="url(#clip620)" style="stroke:#000000; stroke-linecap:round; stroke-linejoin:round; stroke-width:4; stroke-opacity:1; fill:none" points="112.177,1447.88 131.075,1447.88 "/>
<polyline clip-path="url(#clip620)" style="stroke:#000000; stroke-linecap:round; stroke-linejoin:round; stroke-width:4; stroke-opacity:1; fill:none" points="112.177,1229.66 131.075,1229.66 "/>
<polyline clip-path="url(#clip620)" style="stroke:#000000; stroke-linecap:round; stroke-linejoin:round; stroke-width:4; stroke-opacity:1; fill:none" points="112.177,1011.43 131.075,1011.43 "/>
<polyline clip-path="url(#clip620)" style="stroke:#000000; stroke-linecap:round; stroke-linejoin:round; stroke-width:4; stroke-opacity:1; fill:none" points="112.177,793.199 131.075,793.199 "/>
<polyline clip-path="url(#clip620)" style="stroke:#000000; stroke-linecap:round; stroke-linejoin:round; stroke-width:4; stroke-opacity:1; fill:none" points="112.177,574.971 131.075,574.971 "/>
<polyline clip-path="url(#clip620)" style="stroke:#000000; stroke-linecap:round; stroke-linejoin:round; stroke-width:4; stroke-opacity:1; fill:none" points="112.177,356.743 131.075,356.743 "/>
<polyline clip-path="url(#clip620)" style="stroke:#000000; stroke-linecap:round; stroke-linejoin:round; stroke-width:4; stroke-opacity:1; fill:none" points="112.177,138.515 131.075,138.515 "/>
<path clip-path="url(#clip620)" d="M64.2328 1433.68 Q60.6217 1433.68 58.793 1437.25 Q56.9875 1440.79 56.9875 1447.92 Q56.9875 1455.02 58.793 1458.59 Q60.6217 1462.13 64.2328 1462.13 Q67.867 1462.13 69.6726 1458.59 Q71.5013 1455.02 71.5013 1447.92 Q71.5013 1440.79 69.6726 1437.25 Q67.867 1433.68 64.2328 1433.68 M64.2328 1429.98 Q70.0429 1429.98 73.0985 1434.58 Q76.1772 1439.17 76.1772 1447.92 Q76.1772 1456.64 73.0985 1461.25 Q70.0429 1465.83 64.2328 1465.83 Q58.4226 1465.83 55.344 1461.25 Q52.2884 1456.64 52.2884 1447.92 Q52.2884 1439.17 55.344 1434.58 Q58.4226 1429.98 64.2328 1429.98 Z" fill="#000000" fill-rule="nonzero" fill-opacity="1" /><path clip-path="url(#clip620)" d="M56.2699 1243 L63.9087 1243 L63.9087 1216.63 L55.5986 1218.3 L55.5986 1214.04 L63.8624 1212.38 L68.5383 1212.38 L68.5383 1243 L76.1772 1243 L76.1772 1246.94 L56.2699 1246.94 L56.2699 1243 Z" fill="#000000" fill-rule="nonzero" fill-opacity="1" /><path clip-path="url(#clip620)" d="M59.8578 1024.77 L76.1772 1024.77 L76.1772 1028.71 L54.2328 1028.71 L54.2328 1024.77 Q56.8949 1022.02 61.4782 1017.39 Q66.0846 1012.74 67.2652 1011.39 Q69.5105 1008.87 70.3902 1007.13 Q71.2929 1005.37 71.2929 1003.68 Q71.2929 1000.93 69.3485 999.194 Q67.4272 997.457 64.3254 997.457 Q62.1263 997.457 59.6726 998.221 Q57.2421 998.985 54.4643 1000.54 L54.4643 995.814 Q57.2884 994.68 59.7421 994.101 Q62.1958 993.522 64.2328 993.522 Q69.6031 993.522 72.7976 996.207 Q75.992 998.893 75.992 1003.38 Q75.992 1005.51 75.1818 1007.43 Q74.3948 1009.33 72.2883 1011.92 Q71.7096 1012.6 68.6078 1015.81 Q65.5059 1019.01 59.8578 1024.77 Z" fill="#000000" fill-rule="nonzero" fill-opacity="1" /><path clip-path="url(#clip620)" d="M69.0476 791.845 Q72.404 792.563 74.279 794.831 Q76.1772 797.1 76.1772 800.433 Q76.1772 805.549 72.6587 808.35 Q69.1402 811.15 62.6587 811.15 Q60.4828 811.15 58.168 810.711 Q55.8764 810.294 53.4227 809.437 L53.4227 804.924 Q55.3671 806.058 57.6819 806.637 Q59.9967 807.215 62.5198 807.215 Q66.918 807.215 69.2096 805.479 Q71.5244 803.743 71.5244 800.433 Q71.5244 797.377 69.3717 795.664 Q67.242 793.928 63.4226 793.928 L59.3949 793.928 L59.3949 790.086 L63.6078 790.086 Q67.0569 790.086 68.8855 788.72 Q70.7142 787.331 70.7142 784.739 Q70.7142 782.077 68.8161 780.664 Q66.9411 779.229 63.4226 779.229 Q61.5013 779.229 59.3023 779.646 Q57.1032 780.063 54.4643 780.942 L54.4643 776.776 Q57.1264 776.035 59.4412 775.665 Q61.7791 775.294 63.8393 775.294 Q69.1633 775.294 72.2652 777.725 Q75.367 780.132 75.367 784.252 Q75.367 787.123 73.7235 789.114 Q72.08 791.081 69.0476 791.845 Z" fill="#000000" fill-rule="nonzero" fill-opacity="1" /><path clip-path="url(#clip620)" d="M66.5939 561.765 L54.7884 580.214 L66.5939 580.214 L66.5939 561.765 M65.367 557.691 L71.2466 557.691 L71.2466 580.214 L76.1772 580.214 L76.1772 584.103 L71.2466 584.103 L71.2466 592.251 L66.5939 592.251 L66.5939 584.103 L50.9921 584.103 L50.9921 579.589 L65.367 557.691 Z" fill="#000000" fill-rule="nonzero" fill-opacity="1" /><path clip-path="url(#clip620)" d="M55.2745 339.463 L73.6309 339.463 L73.6309 343.398 L59.5569 343.398 L59.5569 351.87 Q60.5754 351.523 61.5939 351.361 Q62.6124 351.176 63.6309 351.176 Q69.418 351.176 72.7976 354.347 Q76.1772 357.518 76.1772 362.935 Q76.1772 368.514 72.705 371.616 Q69.2328 374.694 62.9134 374.694 Q60.7374 374.694 58.4689 374.324 Q56.2236 373.953 53.8162 373.213 L53.8162 368.514 Q55.8995 369.648 58.1217 370.204 Q60.3439 370.759 62.8208 370.759 Q66.8254 370.759 69.1633 368.653 Q71.5013 366.546 71.5013 362.935 Q71.5013 359.324 69.1633 357.217 Q66.8254 355.111 62.8208 355.111 Q60.9458 355.111 59.0708 355.528 Q57.2189 355.944 55.2745 356.824 L55.2745 339.463 Z" fill="#000000" fill-rule="nonzero" fill-opacity="1" /><path clip-path="url(#clip620)" d="M64.6495 136.651 Q61.5013 136.651 59.6495 138.804 Q57.8208 140.957 57.8208 144.707 Q57.8208 148.434 59.6495 150.61 Q61.5013 152.762 64.6495 152.762 Q67.7976 152.762 69.6263 150.61 Q71.4781 148.434 71.4781 144.707 Q71.4781 140.957 69.6263 138.804 Q67.7976 136.651 64.6495 136.651 M73.9318 121.999 L73.9318 126.258 Q72.1726 125.425 70.367 124.985 Q68.5846 124.545 66.8254 124.545 Q62.1958 124.545 59.7421 127.67 Q57.3115 130.795 56.9643 137.114 Q58.33 135.101 60.3902 134.036 Q62.4504 132.948 64.9272 132.948 Q70.1355 132.948 73.1448 136.119 Q76.1772 139.267 76.1772 144.707 Q76.1772 150.031 73.029 153.249 Q69.8809 156.466 64.6495 156.466 Q58.6541 156.466 55.4828 151.883 Q52.3116 147.276 52.3116 138.55 Q52.3116 130.355 56.2004 125.494 Q60.0893 120.61 66.6402 120.61 Q68.3994 120.61 70.1818 120.957 Q71.9874 121.304 73.9318 121.999 Z" fill="#000000" fill-rule="nonzero" fill-opacity="1" /><path clip-path="url(#clip620)" d="M588.92 12.096 L597.102 12.096 L597.102 72.576 L588.92 72.576 L588.92 12.096 Z" fill="#000000" fill-rule="nonzero" fill-opacity="1" /><path clip-path="url(#clip620)" d="M650.777 45.1919 L650.777 72.576 L643.323 72.576 L643.323 45.4349 Q643.323 38.994 640.812 35.7938 Q638.3 32.5936 633.277 32.5936 Q627.241 32.5936 623.757 36.4419 Q620.274 40.2903 620.274 46.9338 L620.274 72.576 L612.779 72.576 L612.779 27.2059 L620.274 27.2059 L620.274 34.2544 Q622.947 30.163 626.553 28.1376 Q630.198 26.1121 634.938 26.1121 Q642.756 26.1121 646.767 30.9732 Q650.777 35.7938 650.777 45.1919 Z" fill="#000000" fill-rule="nonzero" fill-opacity="1" /><path clip-path="url(#clip620)" d="M673.016 14.324 L673.016 27.2059 L688.369 27.2059 L688.369 32.9987 L673.016 32.9987 L673.016 57.6282 Q673.016 63.1779 674.515 64.7578 Q676.055 66.3376 680.713 66.3376 L688.369 66.3376 L688.369 72.576 L680.713 72.576 Q672.085 72.576 668.803 69.3758 Q665.522 66.1351 665.522 57.6282 L665.522 32.9987 L660.054 32.9987 L660.054 27.2059 L665.522 27.2059 L665.522 14.324 L673.016 14.324 Z" fill="#000000" fill-rule="nonzero" fill-opacity="1" /><path clip-path="url(#clip620)" d="M736.98 48.0275 L736.98 51.6733 L702.71 51.6733 Q703.196 59.3701 707.328 63.421 Q711.5 67.4314 718.913 67.4314 Q723.207 67.4314 727.218 66.3781 Q731.268 65.3249 735.238 63.2184 L735.238 70.267 Q731.228 71.9684 727.015 72.8596 Q722.802 73.7508 718.468 73.7508 Q707.611 73.7508 701.251 67.4314 Q694.932 61.1119 694.932 50.3365 Q694.932 39.1965 700.927 32.6746 Q706.963 26.1121 717.171 26.1121 Q726.326 26.1121 731.633 32.0264 Q736.98 37.9003 736.98 48.0275 M729.527 45.84 Q729.446 39.7232 726.083 36.0774 Q722.762 32.4315 717.252 32.4315 Q711.014 32.4315 707.247 35.9558 Q703.52 39.4801 702.953 45.8805 L729.527 45.84 Z" fill="#000000" fill-rule="nonzero" fill-opacity="1" /><path clip-path="url(#clip620)" d="M775.504 34.1734 Q774.249 33.4443 772.75 33.1202 Q771.291 32.7556 769.509 32.7556 Q763.19 32.7556 759.787 36.8875 Q756.425 40.9789 756.425 48.6757 L756.425 72.576 L748.93 72.576 L748.93 27.2059 L756.425 27.2059 L756.425 34.2544 Q758.774 30.1225 762.541 28.1376 Q766.309 26.1121 771.696 26.1121 Q772.466 26.1121 773.398 26.2337 Q774.33 26.3147 775.464 26.5172 L775.504 34.1734 Z" fill="#000000" fill-rule="nonzero" fill-opacity="1" /><path clip-path="url(#clip620)" d="M790.533 65.7705 L790.533 89.8329 L783.039 89.8329 L783.039 27.2059 L790.533 27.2059 L790.533 34.0924 Q792.883 30.0415 796.447 28.0971 Q800.053 26.1121 805.035 26.1121 Q813.299 26.1121 818.444 32.6746 Q823.629 39.2371 823.629 49.9314 Q823.629 60.6258 818.444 67.1883 Q813.299 73.7508 805.035 73.7508 Q800.053 73.7508 796.447 71.8063 Q792.883 69.8214 790.533 65.7705 M815.892 49.9314 Q815.892 41.7081 812.489 37.0496 Q809.127 32.3505 803.212 32.3505 Q797.298 32.3505 793.895 37.0496 Q790.533 41.7081 790.533 49.9314 Q790.533 58.1548 793.895 62.8538 Q797.298 67.5124 803.212 67.5124 Q809.127 67.5124 812.489 62.8538 Q815.892 58.1548 815.892 49.9314 Z" fill="#000000" fill-rule="nonzero" fill-opacity="1" /><path clip-path="url(#clip620)" d="M853.565 32.4315 Q847.57 32.4315 844.086 37.1306 Q840.602 41.7891 840.602 49.9314 Q840.602 58.0738 844.046 62.7728 Q847.529 67.4314 853.565 67.4314 Q859.52 67.4314 863.004 62.7323 Q866.488 58.0333 866.488 49.9314 Q866.488 41.8701 863.004 37.1711 Q859.52 32.4315 853.565 32.4315 M853.565 26.1121 Q863.287 26.1121 868.837 32.4315 Q874.387 38.7509 874.387 49.9314 Q874.387 61.0714 868.837 67.4314 Q863.287 73.7508 853.565 73.7508 Q843.803 73.7508 838.253 67.4314 Q832.744 61.0714 832.744 49.9314 Q832.744 38.7509 838.253 32.4315 Q843.803 26.1121 853.565 26.1121 Z" fill="#000000" fill-rule="nonzero" fill-opacity="1" /><path clip-path="url(#clip620)" d="M886.742 9.54393 L894.196 9.54393 L894.196 72.576 L886.742 72.576 L886.742 9.54393 Z" fill="#000000" fill-rule="nonzero" fill-opacity="1" /><path clip-path="url(#clip620)" d="M930.411 49.7694 Q921.377 49.7694 917.894 51.8354 Q914.41 53.9013 914.41 58.8839 Q914.41 62.8538 917.002 65.2034 Q919.635 67.5124 924.132 67.5124 Q930.33 67.5124 934.057 63.1374 Q937.824 58.7219 937.824 51.4303 L937.824 49.7694 L930.411 49.7694 M945.278 46.6907 L945.278 72.576 L937.824 72.576 L937.824 65.6895 Q935.272 69.8214 931.464 71.8063 Q927.656 73.7508 922.147 73.7508 Q915.179 73.7508 911.048 69.8619 Q906.956 65.9325 906.956 59.3701 Q906.956 51.7138 912.06 47.825 Q917.205 43.9361 927.373 43.9361 L937.824 43.9361 L937.824 43.2069 Q937.824 38.0623 934.421 35.2672 Q931.059 32.4315 924.942 32.4315 Q921.053 32.4315 917.367 33.3632 Q913.681 34.295 910.278 36.1584 L910.278 29.2718 Q914.369 27.692 918.218 26.9223 Q922.066 26.1121 925.712 26.1121 Q935.556 26.1121 940.417 31.2163 Q945.278 36.3204 945.278 46.6907 Z" fill="#000000" fill-rule="nonzero" fill-opacity="1" /><path clip-path="url(#clip620)" d="M968.003 14.324 L968.003 27.2059 L983.356 27.2059 L983.356 32.9987 L968.003 32.9987 L968.003 57.6282 Q968.003 63.1779 969.502 64.7578 Q971.041 66.3376 975.7 66.3376 L983.356 66.3376 L983.356 72.576 L975.7 72.576 Q967.072 72.576 963.79 69.3758 Q960.509 66.1351 960.509 57.6282 L960.509 32.9987 L955.04 32.9987 L955.04 27.2059 L960.509 27.2059 L960.509 14.324 L968.003 14.324 Z" fill="#000000" fill-rule="nonzero" fill-opacity="1" /><path clip-path="url(#clip620)" d="M1031.97 48.0275 L1031.97 51.6733 L997.696 51.6733 Q998.182 59.3701 1002.31 63.421 Q1006.49 67.4314 1013.9 67.4314 Q1018.19 67.4314 1022.2 66.3781 Q1026.26 65.3249 1030.23 63.2184 L1030.23 70.267 Q1026.21 71.9684 1022 72.8596 Q1017.79 73.7508 1013.45 73.7508 Q1002.6 73.7508 996.238 67.4314 Q989.919 61.1119 989.919 50.3365 Q989.919 39.1965 995.914 32.6746 Q1001.95 26.1121 1012.16 26.1121 Q1021.31 26.1121 1026.62 32.0264 Q1031.97 37.9003 1031.97 48.0275 M1024.51 45.84 Q1024.43 39.7232 1021.07 36.0774 Q1017.75 32.4315 1012.24 32.4315 Q1006 32.4315 1002.23 35.9558 Q998.507 39.4801 997.939 45.8805 L1024.51 45.84 Z" fill="#000000" fill-rule="nonzero" fill-opacity="1" /><path clip-path="url(#clip620)" d="M1074.06 34.0924 L1074.06 9.54393 L1081.51 9.54393 L1081.51 72.576 L1074.06 72.576 L1074.06 65.7705 Q1071.71 69.8214 1068.1 71.8063 Q1064.54 73.7508 1059.51 73.7508 Q1051.29 73.7508 1046.1 67.1883 Q1040.96 60.6258 1040.96 49.9314 Q1040.96 39.2371 1046.1 32.6746 Q1051.29 26.1121 1059.51 26.1121 Q1064.54 26.1121 1068.1 28.0971 Q1071.71 30.0415 1074.06 34.0924 M1048.66 49.9314 Q1048.66 58.1548 1052.02 62.8538 Q1055.42 67.5124 1061.34 67.5124 Q1067.25 67.5124 1070.65 62.8538 Q1074.06 58.1548 1074.06 49.9314 Q1074.06 41.7081 1070.65 37.0496 Q1067.25 32.3505 1061.34 32.3505 Q1055.42 32.3505 1052.02 37.0496 Q1048.66 41.7081 1048.66 49.9314 Z" fill="#000000" fill-rule="nonzero" fill-opacity="1" /><path clip-path="url(#clip620)" d="M1131.74 18.8205 L1131.74 41.5461 L1142.03 41.5461 Q1147.74 41.5461 1150.86 38.5889 Q1153.98 35.6318 1153.98 30.163 Q1153.98 24.7348 1150.86 21.7777 Q1147.74 18.8205 1142.03 18.8205 L1131.74 18.8205 M1123.56 12.096 L1142.03 12.096 Q1152.2 12.096 1157.38 16.714 Q1162.61 21.2916 1162.61 30.163 Q1162.61 39.1155 1157.38 43.6931 Q1152.2 48.2706 1142.03 48.2706 L1131.74 48.2706 L1131.74 72.576 L1123.56 72.576 L1123.56 12.096 Z" fill="#000000" fill-rule="nonzero" fill-opacity="1" /><path clip-path="url(#clip620)" d="M1198.09 34.1734 Q1196.84 33.4443 1195.34 33.1202 Q1193.88 32.7556 1192.1 32.7556 Q1185.78 32.7556 1182.38 36.8875 Q1179.01 40.9789 1179.01 48.6757 L1179.01 72.576 L1171.52 72.576 L1171.52 27.2059 L1179.01 27.2059 L1179.01 34.2544 Q1181.36 30.1225 1185.13 28.1376 Q1188.9 26.1121 1194.29 26.1121 Q1195.06 26.1121 1195.99 26.2337 Q1196.92 26.3147 1198.05 26.5172 L1198.09 34.1734 Z" fill="#000000" fill-rule="nonzero" fill-opacity="1" /><path clip-path="url(#clip620)" d="M1221.67 32.4315 Q1215.68 32.4315 1212.19 37.1306 Q1208.71 41.7891 1208.71 49.9314 Q1208.71 58.0738 1212.15 62.7728 Q1215.64 67.4314 1221.67 67.4314 Q1227.63 67.4314 1231.11 62.7323 Q1234.59 58.0333 1234.59 49.9314 Q1234.59 41.8701 1231.11 37.1711 Q1227.63 32.4315 1221.67 32.4315 M1221.67 26.1121 Q1231.39 26.1121 1236.94 32.4315 Q1242.49 38.7509 1242.49 49.9314 Q1242.49 61.0714 1236.94 67.4314 Q1231.39 73.7508 1221.67 73.7508 Q1211.91 73.7508 1206.36 67.4314 Q1200.85 61.0714 1200.85 49.9314 Q1200.85 38.7509 1206.36 32.4315 Q1211.91 26.1121 1221.67 26.1121 Z" fill="#000000" fill-rule="nonzero" fill-opacity="1" /><path clip-path="url(#clip620)" d="M1262.06 65.7705 L1262.06 89.8329 L1254.56 89.8329 L1254.56 27.2059 L1262.06 27.2059 L1262.06 34.0924 Q1264.41 30.0415 1267.97 28.0971 Q1271.58 26.1121 1276.56 26.1121 Q1284.82 26.1121 1289.97 32.6746 Q1295.15 39.2371 1295.15 49.9314 Q1295.15 60.6258 1289.97 67.1883 Q1284.82 73.7508 1276.56 73.7508 Q1271.58 73.7508 1267.97 71.8063 Q1264.41 69.8214 1262.06 65.7705 M1287.42 49.9314 Q1287.42 41.7081 1284.01 37.0496 Q1280.65 32.3505 1274.74 32.3505 Q1268.82 32.3505 1265.42 37.0496 Q1262.06 41.7081 1262.06 49.9314 Q1262.06 58.1548 1265.42 62.8538 Q1268.82 67.5124 1274.74 67.5124 Q1280.65 67.5124 1284.01 62.8538 Q1287.42 58.1548 1287.42 49.9314 Z" fill="#000000" fill-rule="nonzero" fill-opacity="1" /><path clip-path="url(#clip620)" d="M1346.32 48.0275 L1346.32 51.6733 L1312.05 51.6733 Q1312.53 59.3701 1316.66 63.421 Q1320.84 67.4314 1328.25 67.4314 Q1332.54 67.4314 1336.55 66.3781 Q1340.61 65.3249 1344.58 63.2184 L1344.58 70.267 Q1340.56 71.9684 1336.35 72.8596 Q1332.14 73.7508 1327.8 73.7508 Q1316.95 73.7508 1310.59 67.4314 Q1304.27 61.1119 1304.27 50.3365 Q1304.27 39.1965 1310.26 32.6746 Q1316.3 26.1121 1326.51 26.1121 Q1335.66 26.1121 1340.97 32.0264 Q1346.32 37.9003 1346.32 48.0275 M1338.86 45.84 Q1338.78 39.7232 1335.42 36.0774 Q1332.1 32.4315 1326.59 32.4315 Q1320.35 32.4315 1316.58 35.9558 Q1312.86 39.4801 1312.29 45.8805 L1338.86 45.84 Z" fill="#000000" fill-rule="nonzero" fill-opacity="1" /><path clip-path="url(#clip620)" d="M1384.84 34.1734 Q1383.59 33.4443 1382.09 33.1202 Q1380.63 32.7556 1378.85 32.7556 Q1372.53 32.7556 1369.12 36.8875 Q1365.76 40.9789 1365.76 48.6757 L1365.76 72.576 L1358.27 72.576 L1358.27 27.2059 L1365.76 27.2059 L1365.76 34.2544 Q1368.11 30.1225 1371.88 28.1376 Q1375.65 26.1121 1381.03 26.1121 Q1381.8 26.1121 1382.73 26.2337 Q1383.67 26.3147 1384.8 26.5172 L1384.84 34.1734 Z" fill="#000000" fill-rule="nonzero" fill-opacity="1" /><path clip-path="url(#clip620)" d="M1400.03 14.324 L1400.03 27.2059 L1415.39 27.2059 L1415.39 32.9987 L1400.03 32.9987 L1400.03 57.6282 Q1400.03 63.1779 1401.53 64.7578 Q1403.07 66.3376 1407.73 66.3376 L1415.39 66.3376 L1415.39 72.576 L1407.73 72.576 Q1399.1 72.576 1395.82 69.3758 Q1392.54 66.1351 1392.54 57.6282 L1392.54 32.9987 L1387.07 32.9987 L1387.07 27.2059 L1392.54 27.2059 L1392.54 14.324 L1400.03 14.324 Z" fill="#000000" fill-rule="nonzero" fill-opacity="1" /><path clip-path="url(#clip620)" d="M1425.19 27.2059 L1432.64 27.2059 L1432.64 72.576 L1425.19 72.576 L1425.19 27.2059 M1425.19 9.54393 L1432.64 9.54393 L1432.64 18.9825 L1425.19 18.9825 L1425.19 9.54393 Z" fill="#000000" fill-rule="nonzero" fill-opacity="1" /><path clip-path="url(#clip620)" d="M1487.05 48.0275 L1487.05 51.6733 L1452.77 51.6733 Q1453.26 59.3701 1457.39 63.421 Q1461.57 67.4314 1468.98 67.4314 Q1473.27 67.4314 1477.28 66.3781 Q1481.33 65.3249 1485.3 63.2184 L1485.3 70.267 Q1481.29 71.9684 1477.08 72.8596 Q1472.87 73.7508 1468.53 73.7508 Q1457.68 73.7508 1451.32 67.4314 Q1445 61.1119 1445 50.3365 Q1445 39.1965 1450.99 32.6746 Q1457.03 26.1121 1467.24 26.1121 Q1476.39 26.1121 1481.7 32.0264 Q1487.05 37.9003 1487.05 48.0275 M1479.59 45.84 Q1479.51 39.7232 1476.15 36.0774 Q1472.83 32.4315 1467.32 32.4315 Q1461.08 32.4315 1457.31 35.9558 Q1453.59 39.4801 1453.02 45.8805 L1479.59 45.84 Z" fill="#000000" fill-rule="nonzero" fill-opacity="1" /><path clip-path="url(#clip620)" d="M1528.2 28.5427 L1528.2 35.5912 Q1525.04 33.9709 1521.64 33.1607 Q1518.24 32.3505 1514.59 32.3505 Q1509.04 32.3505 1506.25 34.0519 Q1503.49 35.7533 1503.49 39.156 Q1503.49 41.7486 1505.48 43.2475 Q1507.46 44.7058 1513.46 46.0426 L1516.01 46.6097 Q1523.95 48.3111 1527.27 51.4303 Q1530.63 54.509 1530.63 60.0587 Q1530.63 66.3781 1525.61 70.0644 Q1520.63 73.7508 1511.88 73.7508 Q1508.23 73.7508 1504.26 73.0216 Q1500.33 72.3329 1495.96 70.9151 L1495.96 63.2184 Q1500.09 65.3654 1504.1 66.4591 Q1508.11 67.5124 1512.04 67.5124 Q1517.31 67.5124 1520.14 65.73 Q1522.98 63.9071 1522.98 60.6258 Q1522.98 57.5877 1520.91 55.9673 Q1518.89 54.3469 1511.96 52.8481 L1509.37 52.2405 Q1502.44 50.7821 1499.36 47.7845 Q1496.28 44.7463 1496.28 39.4801 Q1496.28 33.0797 1500.82 29.5959 Q1505.36 26.1121 1513.7 26.1121 Q1517.83 26.1121 1521.48 26.7198 Q1525.12 27.3274 1528.2 28.5427 Z" fill="#000000" fill-rule="nonzero" fill-opacity="1" /><path clip-path="url(#clip620)" d="M1591.92 50.8226 Q1591.92 56.6154 1594.8 59.9372 Q1597.68 63.2184 1602.7 63.2184 Q1607.68 63.2184 1610.52 59.8967 Q1613.39 56.5749 1613.39 50.8226 Q1613.39 45.1514 1610.48 41.8296 Q1607.56 38.4674 1602.62 38.4674 Q1597.72 38.4674 1594.8 41.7891 Q1591.92 45.1109 1591.92 50.8226 M1614 62.9348 Q1611.57 66.054 1608.41 67.5529 Q1605.29 69.0112 1601.12 69.0112 Q1594.15 69.0112 1589.78 63.9881 Q1585.44 58.9245 1585.44 50.8226 Q1585.44 42.7208 1589.82 37.6572 Q1594.19 32.5936 1601.12 32.5936 Q1605.29 32.5936 1608.45 34.1329 Q1611.61 35.6318 1614 38.7104 L1614 33.4038 L1619.79 33.4038 L1619.79 63.2184 Q1625.71 62.3272 1629.03 57.8307 Q1632.39 53.2937 1632.39 46.1236 Q1632.39 41.7891 1631.1 37.9813 Q1629.84 34.1734 1627.25 30.9327 Q1623.03 25.626 1616.96 22.8309 Q1610.92 19.9953 1603.79 19.9953 Q1598.81 19.9953 1594.23 21.3321 Q1589.66 22.6284 1585.77 25.2209 Q1579.41 29.3529 1575.8 36.0774 Q1572.24 42.7613 1572.24 50.5796 Q1572.24 57.0205 1574.55 62.6513 Q1576.89 68.282 1581.31 72.576 Q1585.56 76.7889 1591.15 78.9764 Q1596.74 81.2044 1603.1 81.2044 Q1608.33 81.2044 1613.35 79.422 Q1618.42 77.6801 1622.63 74.3989 L1626.28 78.8954 Q1621.21 82.8248 1615.22 84.8907 Q1609.26 86.9972 1603.1 86.9972 Q1595.61 86.9972 1588.97 84.3236 Q1582.32 81.6905 1577.14 76.6269 Q1571.95 71.5633 1569.24 64.9198 Q1566.52 58.2358 1566.52 50.5796 Q1566.52 43.2069 1569.28 36.523 Q1572.03 29.839 1577.14 24.7753 Q1582.36 19.6307 1589.21 16.9166 Q1596.06 14.162 1603.71 14.162 Q1612.3 14.162 1619.63 17.6862 Q1627 21.2105 1631.99 27.692 Q1635.03 31.6619 1636.61 36.3204 Q1638.23 40.9789 1638.23 45.9616 Q1638.23 56.6154 1631.78 62.7728 Q1625.34 68.9302 1614 69.1732 L1614 62.9348 Z" fill="#000000" fill-rule="nonzero" fill-opacity="1" /><path clip-path="url(#clip620)" d="M1686.31 65.6895 L1714.87 65.6895 L1714.87 72.576 L1676.47 72.576 L1676.47 65.6895 Q1681.12 60.8689 1689.15 52.7671 Q1697.21 44.6248 1699.27 42.2752 Q1703.2 37.8598 1704.74 34.8216 Q1706.32 31.7429 1706.32 28.7857 Q1706.32 23.9651 1702.92 20.927 Q1699.56 17.8888 1694.13 17.8888 Q1690.28 17.8888 1685.99 19.2256 Q1681.73 20.5624 1676.87 23.2765 L1676.87 15.0127 Q1681.81 13.0277 1686.11 12.015 Q1690.4 11.0023 1693.97 11.0023 Q1703.36 11.0023 1708.95 15.7013 Q1714.54 20.4004 1714.54 28.2591 Q1714.54 31.9859 1713.13 35.3482 Q1711.75 38.6699 1708.06 43.2069 Q1707.05 44.3817 1701.62 50.0125 Q1696.19 55.6027 1686.31 65.6895 Z" fill="#000000" fill-rule="nonzero" fill-opacity="1" /><path clip-path="url(#clip620)" d="M1754.53 19.2256 L1733.87 51.5113 L1754.53 51.5113 L1754.53 19.2256 M1752.38 12.096 L1762.67 12.096 L1762.67 51.5113 L1771.3 51.5113 L1771.3 58.3168 L1762.67 58.3168 L1762.67 72.576 L1754.53 72.576 L1754.53 58.3168 L1727.22 58.3168 L1727.22 50.4176 L1752.38 12.096 Z" fill="#000000" fill-rule="nonzero" fill-opacity="1" /><path clip-path="url(#clip620)" d="M1802.33 17.4837 Q1796.01 17.4837 1792.81 23.7221 Q1789.65 29.92 1789.65 42.3968 Q1789.65 54.833 1792.81 61.0714 Q1796.01 67.2693 1802.33 67.2693 Q1808.69 67.2693 1811.85 61.0714 Q1815.05 54.833 1815.05 42.3968 Q1815.05 29.92 1811.85 23.7221 Q1808.69 17.4837 1802.33 17.4837 M1802.33 11.0023 Q1812.5 11.0023 1817.84 19.0636 Q1823.23 27.0843 1823.23 42.3968 Q1823.23 57.6687 1817.84 65.73 Q1812.5 73.7508 1802.33 73.7508 Q1792.16 73.7508 1786.77 65.73 Q1781.42 57.6687 1781.42 42.3968 Q1781.42 27.0843 1786.77 19.0636 Q1792.16 11.0023 1802.33 11.0023 Z" fill="#000000" fill-rule="nonzero" fill-opacity="1" /><path clip-path="url(#clip620)" d="M1855.11 17.4837 Q1848.79 17.4837 1845.59 23.7221 Q1842.43 29.92 1842.43 42.3968 Q1842.43 54.833 1845.59 61.0714 Q1848.79 67.2693 1855.11 67.2693 Q1861.47 67.2693 1864.63 61.0714 Q1867.83 54.833 1867.83 42.3968 Q1867.83 29.92 1864.63 23.7221 Q1861.47 17.4837 1855.11 17.4837 M1855.11 11.0023 Q1865.28 11.0023 1870.63 19.0636 Q1876.01 27.0843 1876.01 42.3968 Q1876.01 57.6687 1870.63 65.73 Q1865.28 73.7508 1855.11 73.7508 Q1844.94 73.7508 1839.56 65.73 Q1834.21 57.6687 1834.21 42.3968 Q1834.21 27.0843 1839.56 19.0636 Q1844.94 11.0023 1855.11 11.0023 Z" fill="#000000" fill-rule="nonzero" fill-opacity="1" /><polyline clip-path="url(#clip622)" style="stroke:#009af9; stroke-linecap:round; stroke-linejoin:round; stroke-width:4; stroke-opacity:1; fill:none" points="175.59,1325.33 228.434,1344.45 281.277,1346.14 334.121,1346.25 386.965,1346.22 439.809,1346.21 492.653,1346.21 545.497,1346.21 598.34,1346.21 651.184,1346.21 704.028,1346.21 756.872,1346.21 809.716,1346.21 862.56,1346.21 915.404,1346.21 968.247,1346.21 1021.09,1346.21 1073.94,1346.21 1126.78,1346.21 1179.62,1346.21 1232.47,1346.21 1285.31,1346.21 1338.15,1346.21 1391,1346.21 1443.84,1346.21 1496.69,1346.21 1549.53,1346.21 1602.37,1346.21 1655.22,1346.21 1708.06,1346.21 1760.9,1346.21 1813.75,1346.21 1866.59,1346.21 1919.44,1346.21 1972.28,1346.21 2025.12,1346.21 2077.97,1346.21 2130.81,1346.21 2183.66,1346.21 2236.5,1346.21 2289.34,1346.21 "/>
<polyline clip-path="url(#clip622)" style="stroke:#e26f46; stroke-linecap:round; stroke-linejoin:round; stroke-width:4; stroke-opacity:1; fill:none" points="175.59,1377.01 228.434,1377.9 281.277,1375.78 334.121,1375.3 386.965,1375.22 439.809,1375.21 492.653,1375.21 545.497,1375.21 598.34,1375.21 651.184,1375.21 704.028,1375.21 756.872,1375.21 809.716,1375.21 862.56,1375.21 915.404,1375.21 968.247,1375.21 1021.09,1375.21 1073.94,1375.21 1126.78,1375.21 1179.62,1375.21 1232.47,1375.21 1285.31,1375.21 1338.15,1375.21 1391,1375.21 1443.84,1375.21 1496.69,1375.21 1549.53,1375.21 1602.37,1375.21 1655.22,1375.21 1708.06,1375.21 1760.9,1375.21 1813.75,1375.21 1866.59,1375.21 1919.44,1375.21 1972.28,1375.21 2025.12,1375.21 2077.97,1375.21 2130.81,1375.21 2183.66,1375.21 2236.5,1375.21 2289.34,1375.21 "/>
<polyline clip-path="url(#clip622)" style="stroke:#3da44d; stroke-linecap:round; stroke-linejoin:round; stroke-width:4; stroke-opacity:1; fill:none" points="175.59,1271.29 228.434,1289.17 281.277,1284.13 334.121,1282.69 386.965,1282.44 439.809,1282.41 492.653,1282.4 545.497,1282.41 598.34,1282.41 651.184,1282.4 704.028,1282.4 756.872,1282.41 809.716,1282.4 862.56,1282.4 915.404,1282.4 968.247,1282.41 1021.09,1282.4 1073.94,1282.4 1126.78,1282.4 1179.62,1282.4 1232.47,1282.4 1285.31,1282.4 1338.15,1282.4 1391,1282.4 1443.84,1282.4 1496.69,1282.41 1549.53,1282.4 1602.37,1282.4 1655.22,1282.4 1708.06,1282.41 1760.9,1282.41 1813.75,1282.4 1866.59,1282.41 1919.44,1282.4 1972.28,1282.4 2025.12,1282.4 2077.97,1282.4 2130.81,1282.4 2183.66,1282.4 2236.5,1282.4 2289.34,1282.4 "/>
<polyline clip-path="url(#clip622)" style="stroke:#c271d2; stroke-linecap:round; stroke-linejoin:round; stroke-width:4; stroke-opacity:1; fill:none" points="175.59,1358.14 228.434,1352.39 281.277,1344.94 334.121,1343.32 386.965,1343.09 439.809,1343.07 492.653,1343.08 545.497,1343.08 598.34,1343.08 651.184,1343.08 704.028,1343.08 756.872,1343.08 809.716,1343.08 862.56,1343.08 915.404,1343.08 968.247,1343.08 1021.09,1343.08 1073.94,1343.08 1126.78,1343.08 1179.62,1343.08 1232.47,1343.08 1285.31,1343.08 1338.15,1343.08 1391,1343.08 1443.84,1343.08 1496.69,1343.08 1549.53,1343.08 1602.37,1343.08 1655.22,1343.08 1708.06,1343.08 1760.9,1343.08 1813.75,1343.08 1866.59,1343.08 1919.44,1343.08 1972.28,1343.08 2025.12,1343.08 2077.97,1343.08 2130.81,1343.08 2183.66,1343.08 2236.5,1343.08 2289.34,1343.08 "/>
<polyline clip-path="url(#clip622)" style="stroke:#ac8d18; stroke-linecap:round; stroke-linejoin:round; stroke-width:4; stroke-opacity:1; fill:none" points="175.59,1235.62 228.434,1231.45 281.277,1231.45 334.121,1231.45 386.965,1231.45 439.809,1231.45 492.653,1231.45 545.497,1231.45 598.34,1231.45 651.184,1231.45 704.028,1231.45 756.872,1231.45 809.716,1231.45 862.56,1231.45 915.404,1231.45 968.247,1231.45 1021.09,1231.45 1073.94,1231.45 1126.78,1231.45 1179.62,1231.45 1232.47,1231.45 1285.31,1231.45 1338.15,1231.45 1391,1231.45 1443.84,1231.45 1496.69,1231.45 1549.53,1231.45 1602.37,1231.45 1655.22,1231.45 1708.06,1231.45 1760.9,1231.45 1813.75,1231.45 1866.59,1231.45 1919.44,1231.45 1972.28,1231.45 2025.12,1231.45 2077.97,1231.45 2130.81,1231.45 2183.66,1231.45 2236.5,1231.45 2289.34,1231.45 "/>
<polyline clip-path="url(#clip622)" style="stroke:#00a9ad; stroke-linecap:round; stroke-linejoin:round; stroke-width:4; stroke-opacity:1; fill:none" points="175.59,1432.85 228.434,1417.79 281.277,1413.33 334.121,1412.65 386.965,1412.59 439.809,1412.59 492.653,1412.59 545.497,1412.59 598.34,1412.59 651.184,1412.59 704.028,1412.59 756.872,1412.59 809.716,1412.59 862.56,1412.59 915.404,1412.59 968.247,1412.59 1021.09,1412.59 1073.94,1412.59 1126.78,1412.59 1179.62,1412.59 1232.47,1412.59 1285.31,1412.59 1338.15,1412.59 1391,1412.59 1443.84,1412.59 1496.69,1412.59 1549.53,1412.59 1602.37,1412.59 1655.22,1412.59 1708.06,1412.59 1760.9,1412.59 1813.75,1412.59 1866.59,1412.59 1919.44,1412.59 1972.28,1412.59 2025.12,1412.59 2077.97,1412.59 2130.81,1412.59 2183.66,1412.59 2236.5,1412.59 2289.34,1412.59 "/>
<polyline clip-path="url(#clip622)" style="stroke:#ed5d92; stroke-linecap:round; stroke-linejoin:round; stroke-width:4; stroke-opacity:1; fill:none" points="175.59,1434.56 228.434,1420.08 281.277,1415.77 334.121,1415.11 386.965,1415.05 439.809,1415.05 492.653,1415.06 545.497,1415.06 598.34,1415.06 651.184,1415.06 704.028,1415.06 756.872,1415.06 809.716,1415.06 862.56,1415.06 915.404,1415.06 968.247,1415.06 1021.09,1415.06 1073.94,1415.06 1126.78,1415.06 1179.62,1415.06 1232.47,1415.06 1285.31,1415.06 1338.15,1415.06 1391,1415.06 1443.84,1415.06 1496.69,1415.06 1549.53,1415.06 1602.37,1415.06 1655.22,1415.06 1708.06,1415.06 1760.9,1415.06 1813.75,1415.06 1866.59,1415.06 1919.44,1415.06 1972.28,1415.06 2025.12,1415.06 2077.97,1415.06 2130.81,1415.06 2183.66,1415.06 2236.5,1415.06 2289.34,1415.06 "/>
<polyline clip-path="url(#clip622)" style="stroke:#c68125; stroke-linecap:round; stroke-linejoin:round; stroke-width:4; stroke-opacity:1; fill:none" points="175.59,1430.08 228.434,1415.33 281.277,1413.66 334.121,1413.65 386.965,1413.68 439.809,1413.69 492.653,1413.69 545.497,1413.69 598.34,1413.69 651.184,1413.69 704.028,1413.69 756.872,1413.69 809.716,1413.69 862.56,1413.69 915.404,1413.69 968.247,1413.69 1021.09,1413.69 1073.94,1413.69 1126.78,1413.69 1179.62,1413.69 1232.47,1413.69 1285.31,1413.69 1338.15,1413.69 1391,1413.69 1443.84,1413.69 1496.69,1413.69 1549.53,1413.69 1602.37,1413.69 1655.22,1413.69 1708.06,1413.69 1760.9,1413.69 1813.75,1413.69 1866.59,1413.69 1919.44,1413.69 1972.28,1413.69 2025.12,1413.69 2077.97,1413.69 2130.81,1413.69 2183.66,1413.69 2236.5,1413.69 2289.34,1413.69 "/>
<polyline clip-path="url(#clip622)" style="stroke:#00a98d; stroke-linecap:round; stroke-linejoin:round; stroke-width:4; stroke-opacity:1; fill:none" points="175.59,1371.43 228.434,1351.1 281.277,1352.65 334.121,1353.33 386.965,1353.46 439.809,1353.48 492.653,1353.48 545.497,1353.48 598.34,1353.48 651.184,1353.48 704.028,1353.48 756.872,1353.48 809.716,1353.48 862.56,1353.48 915.404,1353.48 968.247,1353.48 1021.09,1353.48 1073.94,1353.48 1126.78,1353.48 1179.62,1353.48 1232.47,1353.48 1285.31,1353.48 1338.15,1353.48 1391,1353.48 1443.84,1353.48 1496.69,1353.48 1549.53,1353.48 1602.37,1353.48 1655.22,1353.48 1708.06,1353.48 1760.9,1353.48 1813.75,1353.48 1866.59,1353.48 1919.44,1353.48 1972.28,1353.48 2025.12,1353.48 2077.97,1353.48 2130.81,1353.48 2183.66,1353.48 2236.5,1353.48 2289.34,1353.48 "/>
<polyline clip-path="url(#clip622)" style="stroke:#8e971d; stroke-linecap:round; stroke-linejoin:round; stroke-width:4; stroke-opacity:1; fill:none" points="175.59,1428.68 228.434,1415.83 281.277,1417.24 334.121,1417.85 386.965,1417.96 439.809,1417.98 492.653,1417.98 545.497,1417.98 598.34,1417.98 651.184,1417.98 704.028,1417.98 756.872,1417.98 809.716,1417.98 862.56,1417.98 915.404,1417.98 968.247,1417.98 1021.09,1417.98 1073.94,1417.98 1126.78,1417.98 1179.62,1417.98 1232.47,1417.98 1285.31,1417.98 1338.15,1417.98 1391,1417.98 1443.84,1417.98 1496.69,1417.98 1549.53,1417.98 1602.37,1417.98 1655.22,1417.98 1708.06,1417.98 1760.9,1417.98 1813.75,1417.98 1866.59,1417.98 1919.44,1417.98 1972.28,1417.98 2025.12,1417.98 2077.97,1417.98 2130.81,1417.98 2183.66,1417.98 2236.5,1417.98 2289.34,1417.98 "/>
<polyline clip-path="url(#clip622)" style="stroke:#00a8cb; stroke-linecap:round; stroke-linejoin:round; stroke-width:4; stroke-opacity:1; fill:none" points="175.59,1404.03 228.434,1389.39 281.277,1393.93 334.121,1395.24 386.965,1395.46 439.809,1395.48 492.653,1395.48 545.497,1395.48 598.34,1395.48 651.184,1395.48 704.028,1395.48 756.872,1395.48 809.716,1395.48 862.56,1395.48 915.404,1395.48 968.247,1395.48 1021.09,1395.48 1073.94,1395.48 1126.78,1395.48 1179.62,1395.48 1232.47,1395.48 1285.31,1395.48 1338.15,1395.48 1391,1395.48 1443.84,1395.48 1496.69,1395.48 1549.53,1395.48 1602.37,1395.48 1655.22,1395.48 1708.06,1395.48 1760.9,1395.48 1813.75,1395.48 1866.59,1395.48 1919.44,1395.48 1972.28,1395.48 2025.12,1395.48 2077.97,1395.48 2130.81,1395.48 2183.66,1395.48 2236.5,1395.48 2289.34,1395.48 "/>
<polyline clip-path="url(#clip622)" style="stroke:#9b7fe8; stroke-linecap:round; stroke-linejoin:round; stroke-width:4; stroke-opacity:1; fill:none" points="175.59,1435.08 228.434,1432.86 281.277,1434.19 334.121,1434.54 386.965,1434.59 439.809,1434.59 492.653,1434.59 545.497,1434.59 598.34,1434.59 651.184,1434.59 704.028,1434.59 756.872,1434.59 809.716,1434.59 862.56,1434.59 915.404,1434.59 968.247,1434.59 1021.09,1434.59 1073.94,1434.59 1126.78,1434.59 1179.62,1434.59 1232.47,1434.59 1285.31,1434.59 1338.15,1434.59 1391,1434.59 1443.84,1434.59 1496.69,1434.59 1549.53,1434.59 1602.37,1434.59 1655.22,1434.59 1708.06,1434.59 1760.9,1434.59 1813.75,1434.59 1866.59,1434.59 1919.44,1434.59 1972.28,1434.59 2025.12,1434.59 2077.97,1434.59 2130.81,1434.59 2183.66,1434.59 2236.5,1434.59 2289.34,1434.59 "/>
<polyline clip-path="url(#clip622)" style="stroke:#608cf6; stroke-linecap:round; stroke-linejoin:round; stroke-width:4; stroke-opacity:1; fill:none" points="175.59,1435.73 228.434,1433.93 281.277,1435.01 334.121,1435.26 386.965,1435.3 439.809,1435.31 492.653,1435.31 545.497,1435.31 598.34,1435.31 651.184,1435.31 704.028,1435.31 756.872,1435.31 809.716,1435.31 862.56,1435.31 915.404,1435.31 968.247,1435.31 1021.09,1435.31 1073.94,1435.31 1126.78,1435.31 1179.62,1435.31 1232.47,1435.31 1285.31,1435.31 1338.15,1435.31 1391,1435.31 1443.84,1435.31 1496.69,1435.31 1549.53,1435.31 1602.37,1435.31 1655.22,1435.31 1708.06,1435.31 1760.9,1435.31 1813.75,1435.31 1866.59,1435.31 1919.44,1435.31 1972.28,1435.31 2025.12,1435.31 2077.97,1435.31 2130.81,1435.31 2183.66,1435.31 2236.5,1435.31 2289.34,1435.31 "/>
<polyline clip-path="url(#clip622)" style="stroke:#f05f73; stroke-linecap:round; stroke-linejoin:round; stroke-width:4; stroke-opacity:1; fill:none" points="175.59,1433.61 228.434,1434.28 281.277,1435.58 334.121,1435.86 386.965,1435.91 439.809,1435.91 492.653,1435.91 545.497,1435.91 598.34,1435.91 651.184,1435.91 704.028,1435.91 756.872,1435.91 809.716,1435.91 862.56,1435.91 915.404,1435.91 968.247,1435.91 1021.09,1435.91 1073.94,1435.91 1126.78,1435.91 1179.62,1435.91 1232.47,1435.91 1285.31,1435.91 1338.15,1435.91 1391,1435.91 1443.84,1435.91 1496.69,1435.91 1549.53,1435.91 1602.37,1435.91 1655.22,1435.91 1708.06,1435.91 1760.9,1435.91 1813.75,1435.91 1866.59,1435.91 1919.44,1435.91 1972.28,1435.91 2025.12,1435.91 2077.97,1435.91 2130.81,1435.91 2183.66,1435.91 2236.5,1435.91 2289.34,1435.91 "/>
<polyline clip-path="url(#clip622)" style="stroke:#dd64b5; stroke-linecap:round; stroke-linejoin:round; stroke-width:4; stroke-opacity:1; fill:none" points="175.59,1337.44 228.434,1342.68 281.277,1352.65 334.121,1354.86 386.965,1355.17 439.809,1355.19 492.653,1355.19 545.497,1355.19 598.34,1355.19 651.184,1355.19 704.028,1355.19 756.872,1355.19 809.716,1355.19 862.56,1355.19 915.404,1355.19 968.247,1355.19 1021.09,1355.19 1073.94,1355.19 1126.78,1355.19 1179.62,1355.19 1232.47,1355.19 1285.31,1355.19 1338.15,1355.19 1391,1355.19 1443.84,1355.19 1496.69,1355.19 1549.53,1355.19 1602.37,1355.19 1655.22,1355.19 1708.06,1355.19 1760.9,1355.19 1813.75,1355.19 1866.59,1355.19 1919.44,1355.19 1972.28,1355.19 2025.12,1355.19 2077.97,1355.19 2130.81,1355.19 2183.66,1355.19 2236.5,1355.19 2289.34,1355.19 "/>
<polyline clip-path="url(#clip622)" style="stroke:#6b9e32; stroke-linecap:round; stroke-linejoin:round; stroke-width:4; stroke-opacity:1; fill:none" points="175.59,1447.49 228.434,1447.26 281.277,1447.3 334.121,1447.32 386.965,1447.32 439.809,1447.32 492.653,1447.32 545.497,1447.32 598.34,1447.32 651.184,1447.32 704.028,1447.32 756.872,1447.32 809.716,1447.32 862.56,1447.32 915.404,1447.32 968.247,1447.32 1021.09,1447.32 1073.94,1447.32 1126.78,1447.32 1179.62,1447.32 1232.47,1447.32 1285.31,1447.32 1338.15,1447.32 1391,1447.32 1443.84,1447.32 1496.69,1447.32 1549.53,1447.32 1602.37,1447.32 1655.22,1447.32 1708.06,1447.32 1760.9,1447.32 1813.75,1447.32 1866.59,1447.32 1919.44,1447.32 1972.28,1447.32 2025.12,1447.32 2077.97,1447.32 2130.81,1447.32 2183.66,1447.32 2236.5,1447.32 2289.34,1447.32 "/>
<polyline clip-path="url(#clip622)" style="stroke:#009af9; stroke-linecap:round; stroke-linejoin:round; stroke-width:4; stroke-opacity:1; fill:none" points="175.59,1447.12 228.434,1447.07 281.277,1447.19 334.121,1447.21 386.965,1447.22 439.809,1447.22 492.653,1447.22 545.497,1447.22 598.34,1447.22 651.184,1447.22 704.028,1447.22 756.872,1447.22 809.716,1447.22 862.56,1447.22 915.404,1447.22 968.247,1447.22 1021.09,1447.22 1073.94,1447.22 1126.78,1447.22 1179.62,1447.22 1232.47,1447.22 1285.31,1447.22 1338.15,1447.22 1391,1447.22 1443.84,1447.22 1496.69,1447.22 1549.53,1447.22 1602.37,1447.22 1655.22,1447.22 1708.06,1447.22 1760.9,1447.22 1813.75,1447.22 1866.59,1447.22 1919.44,1447.22 1972.28,1447.22 2025.12,1447.22 2077.97,1447.22 2130.81,1447.22 2183.66,1447.22 2236.5,1447.22 2289.34,1447.22 "/>
<polyline clip-path="url(#clip622)" style="stroke:#e26f46; stroke-linecap:round; stroke-linejoin:round; stroke-width:4; stroke-opacity:1; fill:none" points="175.59,1447.86 228.434,1447.87 281.277,1447.87 334.121,1447.87 386.965,1447.87 439.809,1447.87 492.653,1447.87 545.497,1447.87 598.34,1447.87 651.184,1447.87 704.028,1447.87 756.872,1447.87 809.716,1447.87 862.56,1447.87 915.404,1447.87 968.247,1447.87 1021.09,1447.87 1073.94,1447.87 1126.78,1447.87 1179.62,1447.87 1232.47,1447.87 1285.31,1447.87 1338.15,1447.87 1391,1447.87 1443.84,1447.87 1496.69,1447.87 1549.53,1447.87 1602.37,1447.87 1655.22,1447.87 1708.06,1447.87 1760.9,1447.87 1813.75,1447.87 1866.59,1447.87 1919.44,1447.87 1972.28,1447.87 2025.12,1447.87 2077.97,1447.87 2130.81,1447.87 2183.66,1447.87 2236.5,1447.87 2289.34,1447.87 "/>
<polyline clip-path="url(#clip622)" style="stroke:#3da44d; stroke-linecap:round; stroke-linejoin:round; stroke-width:4; stroke-opacity:1; fill:none" points="175.59,1358.11 228.434,1371.02 281.277,1377.69 334.121,1378.93 386.965,1379.1 439.809,1379.11 492.653,1379.11 545.497,1379.11 598.34,1379.11 651.184,1379.11 704.028,1379.11 756.872,1379.11 809.716,1379.11 862.56,1379.11 915.404,1379.11 968.247,1379.11 1021.09,1379.11 1073.94,1379.11 1126.78,1379.11 1179.62,1379.11 1232.47,1379.11 1285.31,1379.11 1338.15,1379.11 1391,1379.11 1443.84,1379.11 1496.69,1379.11 1549.53,1379.11 1602.37,1379.11 1655.22,1379.11 1708.06,1379.11 1760.9,1379.11 1813.75,1379.11 1866.59,1379.11 1919.44,1379.11 1972.28,1379.11 2025.12,1379.11 2077.97,1379.11 2130.81,1379.11 2183.66,1379.11 2236.5,1379.11 2289.34,1379.11 "/>
<polyline clip-path="url(#clip622)" style="stroke:#c271d2; stroke-linecap:round; stroke-linejoin:round; stroke-width:4; stroke-opacity:1; fill:none" points="175.59,1384.36 228.434,1394.11 281.277,1397.35 334.121,1397.9 386.965,1397.96 439.809,1397.97 492.653,1397.97 545.497,1397.97 598.34,1397.97 651.184,1397.97 704.028,1397.97 756.872,1397.97 809.716,1397.97 862.56,1397.97 915.404,1397.97 968.247,1397.97 1021.09,1397.97 1073.94,1397.97 1126.78,1397.97 1179.62,1397.97 1232.47,1397.97 1285.31,1397.97 1338.15,1397.97 1391,1397.97 1443.84,1397.97 1496.69,1397.97 1549.53,1397.97 1602.37,1397.97 1655.22,1397.97 1708.06,1397.97 1760.9,1397.97 1813.75,1397.97 1866.59,1397.97 1919.44,1397.97 1972.28,1397.97 2025.12,1397.97 2077.97,1397.97 2130.81,1397.97 2183.66,1397.97 2236.5,1397.97 2289.34,1397.97 "/>
<polyline clip-path="url(#clip622)" style="stroke:#ac8d18; stroke-linecap:round; stroke-linejoin:round; stroke-width:4; stroke-opacity:1; fill:none" points="175.59,1443.96 228.434,1445.41 281.277,1445.38 334.121,1445.34 386.965,1445.33 439.809,1445.33 492.653,1445.33 545.497,1445.33 598.34,1445.33 651.184,1445.33 704.028,1445.33 756.872,1445.33 809.716,1445.33 862.56,1445.33 915.404,1445.33 968.247,1445.33 1021.09,1445.33 1073.94,1445.33 1126.78,1445.33 1179.62,1445.33 1232.47,1445.33 1285.31,1445.33 1338.15,1445.33 1391,1445.33 1443.84,1445.33 1496.69,1445.33 1549.53,1445.33 1602.37,1445.33 1655.22,1445.33 1708.06,1445.33 1760.9,1445.33 1813.75,1445.33 1866.59,1445.33 1919.44,1445.33 1972.28,1445.33 2025.12,1445.33 2077.97,1445.33 2130.81,1445.33 2183.66,1445.33 2236.5,1445.33 2289.34,1445.33 "/>
<polyline clip-path="url(#clip622)" style="stroke:#00a9ad; stroke-linecap:round; stroke-linejoin:round; stroke-width:4; stroke-opacity:1; fill:none" points="175.59,1321.54 228.434,1337.39 281.277,1339.06 334.121,1339.83 386.965,1339.98 439.809,1339.99 492.653,1339.99 545.497,1339.99 598.34,1339.99 651.184,1339.99 704.028,1339.99 756.872,1339.99 809.716,1339.99 862.56,1339.99 915.404,1339.99 968.247,1339.99 1021.09,1339.99 1073.94,1339.99 1126.78,1339.99 1179.62,1339.99 1232.47,1339.99 1285.31,1339.99 1338.15,1339.99 1391,1339.99 1443.84,1339.99 1496.69,1339.99 1549.53,1339.99 1602.37,1339.99 1655.22,1339.99 1708.06,1339.99 1760.9,1339.99 1813.75,1339.99 1866.59,1339.99 1919.44,1339.99 1972.28,1339.99 2025.12,1339.99 2077.97,1339.99 2130.81,1339.99 2183.66,1339.99 2236.5,1339.99 2289.34,1339.99 "/>
<polyline clip-path="url(#clip622)" style="stroke:#ed5d92; stroke-linecap:round; stroke-linejoin:round; stroke-width:4; stroke-opacity:1; fill:none" points="175.59,162.047 228.434,408.849 281.277,404.049 334.121,404.991 386.965,405.397 439.809,405.474 492.653,405.483 545.497,405.486 598.34,405.486 651.184,405.482 704.028,405.485 756.872,405.487 809.716,405.484 862.56,405.484 915.404,405.485 968.247,405.486 1021.09,405.484 1073.94,405.485 1126.78,405.485 1179.62,405.485 1232.47,405.485 1285.31,405.485 1338.15,405.485 1391,405.485 1443.84,405.485 1496.69,405.488 1549.53,405.485 1602.37,405.484 1655.22,405.485 1708.06,405.485 1760.9,405.487 1813.75,405.485 1866.59,405.487 1919.44,405.485 1972.28,405.484 2025.12,405.485 2077.97,405.483 2130.81,405.485 2183.66,405.485 2236.5,405.485 2289.34,405.485 "/>
<polyline clip-path="url(#clip622)" style="stroke:#c68125; stroke-linecap:round; stroke-linejoin:round; stroke-width:4; stroke-opacity:1; fill:none" points="175.59,1376.18 228.434,1376.18 281.277,1376.18 334.121,1376.18 386.965,1376.18 439.809,1376.18 492.653,1376.18 545.497,1376.18 598.34,1376.18 651.184,1376.18 704.028,1376.18 756.872,1376.18 809.716,1376.18 862.56,1376.18 915.404,1376.18 968.247,1376.18 1021.09,1376.18 1073.94,1376.18 1126.78,1376.18 1179.62,1376.18 1232.47,1376.18 1285.31,1376.18 1338.15,1376.18 1391,1376.18 1443.84,1376.18 1496.69,1376.18 1549.53,1376.18 1602.37,1376.18 1655.22,1376.18 1708.06,1376.18 1760.9,1376.18 1813.75,1376.18 1866.59,1376.18 1919.44,1376.18 1972.28,1376.18 2025.12,1376.18 2077.97,1376.18 2130.81,1376.18 2183.66,1376.18 2236.5,1376.18 2289.34,1376.18 "/>
<polyline clip-path="url(#clip622)" style="stroke:#00a98d; stroke-linecap:round; stroke-linejoin:round; stroke-width:4; stroke-opacity:1; fill:none" points="175.59,1249.41 228.434,1240.75 281.277,1240.75 334.121,1240.75 386.965,1240.75 439.809,1240.75 492.653,1240.75 545.497,1240.75 598.34,1240.75 651.184,1240.75 704.028,1240.75 756.872,1240.75 809.716,1240.75 862.56,1240.75 915.404,1240.75 968.247,1240.75 1021.09,1240.75 1073.94,1240.75 1126.78,1240.75 1179.62,1240.75 1232.47,1240.75 1285.31,1240.75 1338.15,1240.75 1391,1240.75 1443.84,1240.75 1496.69,1240.75 1549.53,1240.75 1602.37,1240.75 1655.22,1240.75 1708.06,1240.75 1760.9,1240.75 1813.75,1240.75 1866.59,1240.75 1919.44,1240.75 1972.28,1240.75 2025.12,1240.75 2077.97,1240.75 2130.81,1240.75 2183.66,1240.75 2236.5,1240.75 2289.34,1240.75 "/>
<polyline clip-path="url(#clip622)" style="stroke:#8e971d; stroke-linecap:round; stroke-linejoin:round; stroke-width:4; stroke-opacity:1; fill:none" points="175.59,1443.18 228.434,1442.96 281.277,1442.96 334.121,1442.96 386.965,1442.96 439.809,1442.96 492.653,1442.96 545.497,1442.96 598.34,1442.96 651.184,1442.96 704.028,1442.96 756.872,1442.96 809.716,1442.96 862.56,1442.96 915.404,1442.96 968.247,1442.96 1021.09,1442.96 1073.94,1442.96 1126.78,1442.96 1179.62,1442.96 1232.47,1442.96 1285.31,1442.96 1338.15,1442.96 1391,1442.96 1443.84,1442.96 1496.69,1442.96 1549.53,1442.96 1602.37,1442.96 1655.22,1442.96 1708.06,1442.96 1760.9,1442.96 1813.75,1442.96 1866.59,1442.96 1919.44,1442.96 1972.28,1442.96 2025.12,1442.96 2077.97,1442.96 2130.81,1442.96 2183.66,1442.96 2236.5,1442.96 2289.34,1442.96 "/>
<polyline clip-path="url(#clip622)" style="stroke:#00a8cb; stroke-linecap:round; stroke-linejoin:round; stroke-width:4; stroke-opacity:1; fill:none" points="175.59,1409.77 228.434,1411.28 281.277,1411.31 334.121,1411.31 386.965,1411.3 439.809,1411.3 492.653,1411.3 545.497,1411.3 598.34,1411.3 651.184,1411.3 704.028,1411.3 756.872,1411.3 809.716,1411.3 862.56,1411.3 915.404,1411.3 968.247,1411.3 1021.09,1411.3 1073.94,1411.3 1126.78,1411.3 1179.62,1411.3 1232.47,1411.3 1285.31,1411.3 1338.15,1411.3 1391,1411.3 1443.84,1411.3 1496.69,1411.3 1549.53,1411.3 1602.37,1411.3 1655.22,1411.3 1708.06,1411.3 1760.9,1411.3 1813.75,1411.3 1866.59,1411.3 1919.44,1411.3 1972.28,1411.3 2025.12,1411.3 2077.97,1411.3 2130.81,1411.3 2183.66,1411.3 2236.5,1411.3 2289.34,1411.3 "/>
<polyline clip-path="url(#clip622)" style="stroke:#9b7fe8; stroke-linecap:round; stroke-linejoin:round; stroke-width:4; stroke-opacity:1; fill:none" points="175.59,1412.35 228.434,1421.7 281.277,1422.69 334.121,1423 386.965,1423.06 439.809,1423.07 492.653,1423.07 545.497,1423.07 598.34,1423.07 651.184,1423.07 704.028,1423.07 756.872,1423.07 809.716,1423.07 862.56,1423.07 915.404,1423.07 968.247,1423.07 1021.09,1423.07 1073.94,1423.07 1126.78,1423.07 1179.62,1423.07 1232.47,1423.07 1285.31,1423.07 1338.15,1423.07 1391,1423.07 1443.84,1423.07 1496.69,1423.07 1549.53,1423.07 1602.37,1423.07 1655.22,1423.07 1708.06,1423.07 1760.9,1423.07 1813.75,1423.07 1866.59,1423.07 1919.44,1423.07 1972.28,1423.07 2025.12,1423.07 2077.97,1423.07 2130.81,1423.07 2183.66,1423.07 2236.5,1423.07 2289.34,1423.07 "/>
<polyline clip-path="url(#clip622)" style="stroke:#608cf6; stroke-linecap:round; stroke-linejoin:round; stroke-width:4; stroke-opacity:1; fill:none" points="175.59,1446.35 228.434,1444.88 281.277,1444.94 334.121,1444.98 386.965,1444.99 439.809,1444.99 492.653,1444.99 545.497,1444.99 598.34,1444.99 651.184,1444.99 704.028,1444.99 756.872,1444.99 809.716,1444.99 862.56,1444.99 915.404,1444.99 968.247,1444.99 1021.09,1444.99 1073.94,1444.99 1126.78,1444.99 1179.62,1444.99 1232.47,1444.99 1285.31,1444.99 1338.15,1444.99 1391,1444.99 1443.84,1444.99 1496.69,1444.99 1549.53,1444.99 1602.37,1444.99 1655.22,1444.99 1708.06,1444.99 1760.9,1444.99 1813.75,1444.99 1866.59,1444.99 1919.44,1444.99 1972.28,1444.99 2025.12,1444.99 2077.97,1444.99 2130.81,1444.99 2183.66,1444.99 2236.5,1444.99 2289.34,1444.99 "/>
<polyline clip-path="url(#clip622)" style="stroke:#f05f73; stroke-linecap:round; stroke-linejoin:round; stroke-width:4; stroke-opacity:1; fill:none" points="175.59,1431.94 228.434,1434.19 281.277,1434.62 334.121,1434.79 386.965,1434.83 439.809,1434.83 492.653,1434.83 545.497,1434.83 598.34,1434.83 651.184,1434.83 704.028,1434.83 756.872,1434.83 809.716,1434.83 862.56,1434.83 915.404,1434.83 968.247,1434.83 1021.09,1434.83 1073.94,1434.83 1126.78,1434.83 1179.62,1434.83 1232.47,1434.83 1285.31,1434.83 1338.15,1434.83 1391,1434.83 1443.84,1434.83 1496.69,1434.83 1549.53,1434.83 1602.37,1434.83 1655.22,1434.83 1708.06,1434.83 1760.9,1434.83 1813.75,1434.83 1866.59,1434.83 1919.44,1434.83 1972.28,1434.83 2025.12,1434.83 2077.97,1434.83 2130.81,1434.83 2183.66,1434.83 2236.5,1434.83 2289.34,1434.83 "/>
<polyline clip-path="url(#clip622)" style="stroke:#dd64b5; stroke-linecap:round; stroke-linejoin:round; stroke-width:4; stroke-opacity:1; fill:none" points="175.59,1445.71 228.434,1446.08 281.277,1446.15 334.121,1446.17 386.965,1446.18 439.809,1446.18 492.653,1446.18 545.497,1446.18 598.34,1446.18 651.184,1446.18 704.028,1446.18 756.872,1446.18 809.716,1446.18 862.56,1446.18 915.404,1446.18 968.247,1446.18 1021.09,1446.18 1073.94,1446.18 1126.78,1446.18 1179.62,1446.18 1232.47,1446.18 1285.31,1446.18 1338.15,1446.18 1391,1446.18 1443.84,1446.18 1496.69,1446.18 1549.53,1446.18 1602.37,1446.18 1655.22,1446.18 1708.06,1446.18 1760.9,1446.18 1813.75,1446.18 1866.59,1446.18 1919.44,1446.18 1972.28,1446.18 2025.12,1446.18 2077.97,1446.18 2130.81,1446.18 2183.66,1446.18 2236.5,1446.18 2289.34,1446.18 "/>
<polyline clip-path="url(#clip622)" style="stroke:#6b9e32; stroke-linecap:round; stroke-linejoin:round; stroke-width:4; stroke-opacity:1; fill:none" points="175.59,1360.82 228.434,1383.89 281.277,1391.61 334.121,1392.91 386.965,1393.06 439.809,1393.07 492.653,1393.07 545.497,1393.07 598.34,1393.07 651.184,1393.07 704.028,1393.07 756.872,1393.07 809.716,1393.07 862.56,1393.07 915.404,1393.07 968.247,1393.07 1021.09,1393.07 1073.94,1393.07 1126.78,1393.07 1179.62,1393.07 1232.47,1393.07 1285.31,1393.07 1338.15,1393.07 1391,1393.07 1443.84,1393.07 1496.69,1393.07 1549.53,1393.07 1602.37,1393.07 1655.22,1393.07 1708.06,1393.07 1760.9,1393.07 1813.75,1393.07 1866.59,1393.07 1919.44,1393.07 1972.28,1393.07 2025.12,1393.07 2077.97,1393.07 2130.81,1393.07 2183.66,1393.07 2236.5,1393.07 2289.34,1393.07 "/>
<polyline clip-path="url(#clip622)" style="stroke:#009af9; stroke-linecap:round; stroke-linejoin:round; stroke-width:4; stroke-opacity:1; fill:none" points="175.59,1274.83 228.434,1325.29 281.277,1339.89 334.121,1342.23 386.965,1342.48 439.809,1342.49 492.653,1342.49 545.497,1342.48 598.34,1342.48 651.184,1342.48 704.028,1342.48 756.872,1342.48 809.716,1342.48 862.56,1342.48 915.404,1342.48 968.247,1342.48 1021.09,1342.48 1073.94,1342.48 1126.78,1342.48 1179.62,1342.48 1232.47,1342.48 1285.31,1342.48 1338.15,1342.48 1391,1342.48 1443.84,1342.48 1496.69,1342.48 1549.53,1342.48 1602.37,1342.48 1655.22,1342.48 1708.06,1342.48 1760.9,1342.48 1813.75,1342.48 1866.59,1342.48 1919.44,1342.48 1972.28,1342.48 2025.12,1342.48 2077.97,1342.48 2130.81,1342.48 2183.66,1342.48 2236.5,1342.48 2289.34,1342.48 "/>
<polyline clip-path="url(#clip622)" style="stroke:#e26f46; stroke-linecap:round; stroke-linejoin:round; stroke-width:4; stroke-opacity:1; fill:none" points="175.59,1412.98 228.434,1415.14 281.277,1414.31 334.121,1414.08 386.965,1414.05 439.809,1414.04 492.653,1414.04 545.497,1414.04 598.34,1414.04 651.184,1414.04 704.028,1414.04 756.872,1414.04 809.716,1414.04 862.56,1414.04 915.404,1414.04 968.247,1414.04 1021.09,1414.04 1073.94,1414.04 1126.78,1414.04 1179.62,1414.04 1232.47,1414.04 1285.31,1414.04 1338.15,1414.04 1391,1414.04 1443.84,1414.04 1496.69,1414.04 1549.53,1414.04 1602.37,1414.04 1655.22,1414.04 1708.06,1414.04 1760.9,1414.04 1813.75,1414.04 1866.59,1414.04 1919.44,1414.04 1972.28,1414.04 2025.12,1414.04 2077.97,1414.04 2130.81,1414.04 2183.66,1414.04 2236.5,1414.04 2289.34,1414.04 "/>
<polyline clip-path="url(#clip622)" style="stroke:#3da44d; stroke-linecap:round; stroke-linejoin:round; stroke-width:4; stroke-opacity:1; fill:none" points="175.59,1366.47 228.434,1356.61 281.277,1350.94 334.121,1349.77 386.965,1349.62 439.809,1349.61 492.653,1349.61 545.497,1349.61 598.34,1349.61 651.184,1349.61 704.028,1349.61 756.872,1349.61 809.716,1349.61 862.56,1349.61 915.404,1349.61 968.247,1349.61 1021.09,1349.61 1073.94,1349.61 1126.78,1349.61 1179.62,1349.61 1232.47,1349.61 1285.31,1349.61 1338.15,1349.61 1391,1349.61 1443.84,1349.61 1496.69,1349.61 1549.53,1349.61 1602.37,1349.61 1655.22,1349.61 1708.06,1349.61 1760.9,1349.61 1813.75,1349.61 1866.59,1349.61 1919.44,1349.61 1972.28,1349.61 2025.12,1349.61 2077.97,1349.61 2130.81,1349.61 2183.66,1349.61 2236.5,1349.61 2289.34,1349.61 "/>
</svg>
